<?xml version="1.0" encoding="UTF-8"?>
<svg version="1.1" xmlns="http://www.w3.org/2000/svg" width="945" height="264">
<path d="M0 0 C9.47552432 5.22976054 15.00076502 14.95097743 19.5 24.4375 C23.10253938 31.84210402 26.88904965 39.10717728 30.875 46.3125 C34.69945945 53.2412206 38.38004962 60.2118388 41.875 67.3125 C45.52205044 74.70547119 49.32192343 82.0022197 53.25 89.25 C54.00023437 90.64508789 54.00023437 90.64508789 54.765625 92.06835938 C57.1682673 96.46779224 59.54191914 100.52921627 62.875 104.3125 C63.19138428 103.79977539 63.50776855 103.28705078 63.83374023 102.75878906 C85.862106 67.1723606 85.862106 67.1723606 96.90625 63.66796875 C102.60897401 62.59368799 106.5603406 63.91503812 111.56640625 66.7109375 C114.94728977 69.05638969 117.79107374 71.73763462 119.875 75.3125 C119.875 76.3025 119.875 77.2925 119.875 78.3125 C118.781875 78.23 117.68875 78.1475 116.5625 78.0625 C115.345625 78.145 114.12875 78.2275 112.875 78.3125 C111.1273872 80.25305857 111.1273872 80.25305857 109.875 82.3125 C111.41220703 82.2815625 111.41220703 82.2815625 112.98046875 82.25 C123.66205628 82.31069834 123.66205628 82.31069834 126.984375 85.0546875 C128.99804714 88.28840805 129.875 90.47813457 129.875 94.3125 C116.015 93.8175 116.015 93.8175 101.875 93.3125 C101.215 94.9625 100.555 96.6125 99.875 98.3125 C100.90906982 98.30613525 101.94313965 98.29977051 103.00854492 98.29321289 C106.85760222 98.27874584 110.70517222 98.31016754 114.55395508 98.35522461 C116.21731498 98.36833723 117.88082076 98.36912323 119.54418945 98.35717773 C121.94106782 98.34213007 124.33392 98.37188985 126.73046875 98.41015625 C127.4702446 98.39590103 128.21002045 98.38164581 128.97221375 98.36695862 C131.99288728 98.45102971 134.24076878 98.71886245 136.49136353 100.82540894 C138.74405263 103.82752996 139.875 105.48681712 139.875 109.3125 C135.26698858 109.46123164 130.66038408 109.569888 126.05053711 109.64208984 C124.48388321 109.67219601 122.91739697 109.7130923 121.35131836 109.76513672 C119.09446857 109.83823887 116.83985204 109.87201301 114.58203125 109.8984375 C113.88600296 109.92940521 113.18997467 109.96037292 112.47285461 109.99227905 C109.68567095 109.99419197 107.5298063 109.91833065 105.42611694 107.97198486 C104.22005921 106.43611546 103.04632337 104.87502092 101.875 103.3125 C99.70968832 102.36813651 99.70968832 102.36813651 97.875 102.3125 C97.51784912 102.84093506 97.16069824 103.36937012 96.79272461 103.91381836 C95.13583288 106.36138405 93.47419289 108.80569162 91.8125 111.25 C91.25111328 112.08080078 90.68972656 112.91160156 90.11132812 113.76757812 C74.77340219 136.29241792 74.77340219 136.29241792 64.875 138.3125 C58.44850271 138.93441909 54.27495219 137.86203754 48.875 134.3125 C41.04161205 127.75431474 36.66682774 117.47856154 31.8125 108.6875 C31.14544002 107.48261343 30.47828361 106.27778025 29.81103516 105.07299805 C22.59378712 92.03072608 15.44386499 78.95172737 8.3828125 65.82421875 C7.79773926 64.73842529 7.21266602 63.65263184 6.60986328 62.53393555 C5.48316344 60.44178744 4.35899221 58.34827489 3.23779297 56.25317383 C0.07718011 50.37629809 0.07718011 50.37629809 -3.5 44.75 C-5.125 42.3125 -5.125 42.3125 -5.125 40.3125 C-8.40756228 41.24867571 -9.86322286 41.94714145 -11.87915039 44.76074219 C-12.40500732 45.78329102 -12.93086426 46.80583984 -13.47265625 47.859375 C-14.07158691 49.0030957 -14.67051758 50.14681641 -15.28759766 51.32519531 C-15.92100302 52.57091037 -16.55430123 53.81667992 -17.1875 55.0625 C-17.85295347 56.34300806 -18.52012763 57.62262328 -19.18896484 58.90136719 C-20.53910479 61.48470007 -21.88283706 64.07120448 -23.22216797 66.66015625 C-25.82180221 71.66934676 -28.53047801 76.61762311 -31.25 81.5625 C-34.28251552 87.09976159 -37.30656612 92.641133 -40.30078125 98.19921875 C-45.8689517 108.53342225 -51.49043913 118.83346152 -57.25 129.0625 C-57.79454834 130.0330835 -58.33909668 131.00366699 -58.90014648 132.00366211 C-59.41005127 132.90479736 -59.91995605 133.80593262 -60.4453125 134.734375 C-60.89148926 135.52424805 -61.33766602 136.31412109 -61.79736328 137.12792969 C-62.2354834 137.84883789 -62.67360352 138.56974609 -63.125 139.3125 C-63.76864502 140.4277002 -63.76864502 140.4277002 -64.42529297 141.56542969 C-66.125 143.3125 -66.125 143.3125 -68.8046875 143.83007812 C-69.85914062 143.83458984 -70.91359375 143.83910156 -72 143.84375 C-73.72476563 143.85148437 -73.72476563 143.85148437 -75.484375 143.859375 C-76.68578125 143.84390625 -77.8871875 143.8284375 -79.125 143.8125 C-80.32640625 143.82796875 -81.5278125 143.8434375 -82.765625 143.859375 C-84.49039063 143.85164063 -84.49039063 143.85164063 -86.25 143.84375 C-87.83167969 143.83698242 -87.83167969 143.83698242 -89.4453125 143.83007812 C-92.125 143.3125 -92.125 143.3125 -94.1171875 141.65429688 C-95.125 139.3125 -95.125 139.3125 -94.50341797 136.43359375 C-93.13510664 133.33538403 -91.68128673 130.3544156 -90.0703125 127.375 C-89.46171387 126.24416992 -88.85311523 125.11333984 -88.22607422 123.94824219 C-87.56751239 122.73625771 -86.90881781 121.52434535 -86.25 120.3125 C-85.56880196 119.0513072 -84.88797958 117.78991144 -84.20751953 116.52832031 C-82.18685809 112.7859829 -80.15714103 109.04861345 -78.125 105.3125 C-77.57392578 104.29865234 -77.02285156 103.28480469 -76.45507812 102.24023438 C-74.00431433 97.73519977 -71.54721237 93.2336744 -69.0859375 88.734375 C-65.36266167 81.92453583 -61.6715566 75.09732366 -57.97998047 68.27026367 C-55.36380518 63.43490656 -52.74046866 58.60387288 -50.09375 53.78515625 C-49.10402356 51.98184937 -48.11443922 50.17846449 -47.125 48.375 C-46.6407959 47.49312012 -46.1565918 46.61124023 -45.65771484 45.70263672 C-42.93730862 40.72106694 -40.28566529 35.7106897 -37.6953125 30.66015625 C-37.12039062 29.5405249 -36.54546875 28.42089355 -35.953125 27.26733398 C-34.84982135 25.11022984 -33.75303819 22.9497731 -32.6640625 20.78540039 C-24.67603953 5.15450022 -24.67603953 5.15450022 -17.9375 1.375 C-17.28394531 0.99472656 -16.63039063 0.61445312 -15.95703125 0.22265625 C-10.52212227 -2.4774158 -5.47230241 -2.56546502 0 0 Z " fill="#1EC8C6" transform="translate(117.125,49.6875)"/>
<path d="M0 0 C0.96378571 -0.0033284 1.92757141 -0.0066568 2.92056274 -0.01008606 C4.94931566 -0.01512413 6.97807677 -0.01749536 9.00683594 -0.01733398 C12.08542727 -0.01951979 15.16365942 -0.03770719 18.2421875 -0.05664062 C20.22395712 -0.05957547 22.20572843 -0.06155966 24.1875 -0.0625 C25.09511078 -0.06968552 26.00272156 -0.07687103 26.93783569 -0.08427429 C35.38286128 -0.05455849 44.14272096 0.36791787 50.7265625 6.16796875 C54.55083049 11.66100822 55.26820326 15.50806434 54.9765625 22.10546875 C54.8940625 24.76609375 54.8115625 27.42671875 54.7265625 30.16796875 C46.4765625 30.16796875 38.2265625 30.16796875 29.7265625 30.16796875 C29.0665625 27.85796875 28.4065625 25.54796875 27.7265625 23.16796875 C23.18262673 20.89600086 16.90265426 21.93781397 11.9140625 21.91796875 C9.98723633 21.88703125 9.98723633 21.88703125 8.02148438 21.85546875 C6.16426758 21.84773438 6.16426758 21.84773438 4.26953125 21.83984375 C3.13539795 21.83049805 2.00126465 21.82115234 0.83276367 21.81152344 C-2.67984221 22.21460483 -4.49677909 23.00096994 -7.2734375 25.16796875 C-10.78787022 29.93883945 -9.68410138 36.75876942 -9.69897461 42.43969727 C-9.71088363 44.59571601 -9.76010044 46.74888067 -9.81054688 48.90429688 C-9.8200111 50.28253819 -9.82724614 51.66079699 -9.83203125 53.0390625 C-9.84548584 54.2861499 -9.85894043 55.5332373 -9.87280273 56.81811523 C-9.09204056 61.18179661 -7.86940563 62.61182027 -4.2734375 65.16796875 C-0.70453993 65.85352728 -0.70453993 65.85352728 3.21484375 65.65625 C3.91804245 65.64917526 4.62124115 65.64210052 5.3457489 65.6348114 C7.57796477 65.60696087 9.80761327 65.54425195 12.0390625 65.48046875 C13.55790631 65.45537326 15.0767897 65.43256227 16.59570312 65.41210938 C20.30681498 65.35716882 24.01643791 65.27096614 27.7265625 65.16796875 C29.24609959 60.25214798 29.24609959 60.25214798 29.7265625 55.16796875 C18.8365625 54.67296875 18.8365625 54.67296875 7.7265625 54.16796875 C7.7265625 48.88796875 7.7265625 43.60796875 7.7265625 38.16796875 C23.5665625 38.16796875 39.4065625 38.16796875 55.7265625 38.16796875 C55.7265625 76.51269809 55.7265625 76.51269809 50.7265625 82.16796875 C45.54473156 85.79631444 40.11536664 87.28507011 33.84130859 87.31323242 C32.87285004 87.31961227 31.90439148 87.32599213 30.90658569 87.33256531 C29.86491241 87.33367813 28.82323914 87.33479095 27.75 87.3359375 C26.66957428 87.3392659 25.58914856 87.3425943 24.47598267 87.34602356 C22.18793157 87.35108603 19.8998731 87.35343209 17.61181641 87.35327148 C14.13561571 87.35544743 10.65973787 87.37358145 7.18359375 87.39257812 C4.95573025 87.3955144 2.72786524 87.39749763 0.5 87.3984375 C-1.04429184 87.40921577 -1.04429184 87.40921577 -2.61978149 87.42021179 C-11.51803309 87.39248502 -20.18339543 87.07633714 -27.2734375 81.16796875 C-36.89356743 71.27297797 -35.5000254 56.42262643 -35.56860352 43.60131836 C-35.58011879 42.10935987 -35.60056388 40.61744243 -35.63012695 39.12573242 C-35.84256457 28.34600695 -35.71727658 16.6924711 -29.0234375 7.60546875 C-20.47793263 0.03104398 -10.92069556 0.01333043 0 0 Z " fill="#757575" transform="translate(327.2734375,110.83203125)"/>
<path d="M0 0 C3.774375 -0.020625 7.54875 -0.04125 11.4375 -0.0625 C12.62915771 -0.071604 13.82081543 -0.08070801 15.04858398 -0.09008789 C16.44572632 -0.09383423 16.44572632 -0.09383423 17.87109375 -0.09765625 C18.82943115 -0.10289307 19.78776855 -0.10812988 20.77514648 -0.11352539 C23 0 23 0 24 1 C24.09498646 3.43396019 24.12558417 5.83942952 24.11352539 8.27368164 C24.11367142 9.03460617 24.11381744 9.7955307 24.1139679 10.57951355 C24.11326862 13.10642298 24.10547555 15.63325962 24.09765625 18.16015625 C24.09579212 19.9075059 24.0943682 21.65485607 24.09336853 23.40220642 C24.08954293 28.01031934 24.07971229 32.61840095 24.06866455 37.22650146 C24.05845134 41.92508521 24.0538711 46.62367399 24.04882812 51.32226562 C24.03809005 60.54819087 24.02101313 69.77409284 24 79 C22.1061459 79.79718352 20.21144887 80.59236468 18.31640625 81.38671875 C17.26138916 81.82975342 16.20637207 82.27278809 15.11938477 82.72924805 C4.63573487 87 4.63573487 87 0 87 C0 85.68 0 84.36 0 83 C-0.680625 83.309375 -1.36125 83.61875 -2.0625 83.9375 C-12.07180861 87.55788822 -24.92703827 87.23577899 -35 84 C-39.33274445 81.67315576 -42.43539655 79.2132771 -45 75 C-46.91514001 68.26374741 -47.35617813 61.5304463 -47.3125 54.5625 C-47.30831055 53.64597656 -47.30412109 52.72945312 -47.29980469 51.78515625 C-47.16829498 43.90576594 -46.23776517 37.11748792 -42.4375 30.125 C-33.50307456 22.33601372 -23.39418201 21.40030621 -12 22 C-3.63568773 23.18215613 -3.63568773 23.18215613 0 25 C0 16.75 0 8.5 0 0 Z M-23 44 C-24.96385993 49.89157979 -25.00199199 57.26161468 -22.8125 63.125 C-21.24113865 66.0443283 -21.24113865 66.0443283 -18.875 67.4375 C-13.84091349 68.42242997 -9.11188039 68.359469 -4.0625 67.5 C-1.35780373 65.53294817 -0.88743132 63.4986739 -0.28125 60.28125 C0.57055793 53.37214124 0.40660824 48.18236309 -3 42 C-8.96339324 38.02440451 -18.25257129 38.27034466 -23 44 Z " fill="#757575" transform="translate(899,112)"/>
<path d="M0 0 C1.12083984 -0.020625 2.24167969 -0.04125 3.39648438 -0.0625 C13.13224053 -0.10770374 22.2970903 0.76659356 29.875 7.359375 C37.26259692 17.07567094 34.3125 25.37602746 34.3125 38.25 C19.4625 38.25 4.6125 38.25 -10.6875 38.25 C-10.15853163 44.26968036 -10.15853163 44.26968036 -7.6875 49.25 C-5.33436445 49.32271741 -2.97916332 49.33370868 -0.625 49.3125 C0.66535156 49.30347656 1.95570313 49.29445312 3.28515625 49.28515625 C4.78369141 49.26775391 4.78369141 49.26775391 6.3125 49.25 C7.3025 47.27 8.2925 45.29 9.3125 43.25 C17.5625 43.25 25.8125 43.25 34.3125 43.25 C31.85049392 55.5600304 31.85049392 55.5600304 25.3125 61.25 C17.76242077 65.93104912 9.78448269 65.46633049 1.18505859 65.49023438 C-0.91739976 65.49990752 -3.0188656 65.53095426 -5.12109375 65.5625 C-13.92442926 65.63237759 -21.89886328 65.36133255 -29.125 59.875 C-36.15245575 52.67614289 -34.90926805 41.29130355 -34.86157227 31.83886719 C-34.62150867 12.80900867 -34.62150867 12.80900867 -27.6171875 5.8046875 C-19.71637311 -0.56074596 -9.63122002 0.04355555 0 0 Z M-9.6875 18.25 C-9.6875 20.23 -9.6875 22.21 -9.6875 24.25 C-3.0875 24.25 3.5125 24.25 10.3125 24.25 C9.95186201 18.50186988 9.95186201 18.50186988 7.3125 16.25 C1.19030675 13.98252102 -4.18909408 15.03142092 -9.6875 18.25 Z " fill="#757575" transform="translate(590.6875,132.75)"/>
<path d="M0 0 C1.12083984 -0.020625 2.24167969 -0.04125 3.39648438 -0.0625 C13.13224053 -0.10770374 22.2970903 0.76659356 29.875 7.359375 C37.26259692 17.07567094 34.3125 25.37602746 34.3125 38.25 C19.7925 38.25 5.2725 38.25 -9.6875 38.25 C-9.32129316 46.27050148 -9.32129316 46.27050148 -7.6875 49.25 C-3.0675 49.25 1.5525 49.25 6.3125 49.25 C7.3025 47.27 8.2925 45.29 9.3125 43.25 C17.5625 43.25 25.8125 43.25 34.3125 43.25 C31.85049392 55.5600304 31.85049392 55.5600304 25.3125 61.25 C17.76242077 65.93104912 9.78448269 65.46633049 1.18505859 65.49023438 C-0.91739976 65.49990752 -3.0188656 65.53095426 -5.12109375 65.5625 C-13.81973066 65.6309612 -21.09667549 65.14421545 -28.5625 60.4375 C-33.28764913 55.5733759 -34.14746268 50.63993059 -34.12109375 44.0703125 C-34.1263356 43.29871796 -34.13157745 42.52712341 -34.13697815 41.73214722 C-34.14337423 40.10676267 -34.14209273 38.48133169 -34.13354492 36.85595703 C-34.12504752 34.38879594 -34.15380598 31.92396338 -34.18554688 29.45703125 C-34.18715966 27.86979235 -34.18657988 26.28254941 -34.18359375 24.6953125 C-34.19482773 23.96796906 -34.20606171 23.24062561 -34.21763611 22.49124146 C-34.13709211 16.4744365 -32.41343908 11.20964824 -28.27561951 6.71707153 C-20.10842414 -0.46752486 -10.28266202 0.04650158 0 0 Z M-9.6875 18.25 C-9.6875 20.23 -9.6875 22.21 -9.6875 24.25 C-3.0875 24.25 3.5125 24.25 10.3125 24.25 C10.79686516 19.56968101 10.79686516 19.56968101 9.0625 17.5 C3.20641099 13.31707928 -3.86015537 14.83887144 -9.6875 18.25 Z " fill="#757575" transform="translate(429.6875,132.75)"/>
<path d="M0 0 C0.78186676 0.00359528 1.56373352 0.00719055 2.36929321 0.01089478 C3.18873917 0.01074875 4.00818512 0.01060272 4.85246277 0.01045227 C7.57416385 0.01115164 10.29579737 0.01894515 13.01748657 0.02676392 C14.89935773 0.02862801 16.78122938 0.03005195 18.6631012 0.03105164 C23.62631561 0.0348775 28.58950096 0.04470836 33.55270386 0.05575562 C38.61322639 0.06596827 43.67375359 0.07054894 48.73428345 0.07559204 C58.67114521 0.08633057 68.60798535 0.10340781 78.54483032 0.12442017 C78.2414527 1.55208444 77.93422106 2.97893004 77.62539673 4.40542603 C77.45472687 5.20008774 77.28405701 5.99474945 77.10821533 6.81349182 C75.88836876 11.81713579 73.59960438 16.42006904 71.54483032 21.12442017 C63.95483032 21.45442017 56.36483032 21.78442017 48.54483032 22.12442017 C48.55006714 23.72881958 48.55530396 25.33321899 48.56069946 26.98623657 C48.57881749 32.94619182 48.59028725 38.90614464 48.59976196 44.86611938 C48.60478661 47.44424855 48.6116074 50.02237487 48.62026978 52.60049438 C48.63241709 56.30899762 48.63807738 60.01746314 48.64248657 63.72598267 C48.64764786 64.87619904 48.65280914 66.02641541 48.65812683 67.21148682 C48.65820236 68.29215424 48.65827789 69.37282166 48.65835571 70.48623657 C48.66057632 71.4322171 48.66279694 72.37819763 48.66508484 73.35284424 C48.53537943 76.34224044 48.09203966 79.18511169 47.54483032 82.12442017 C44.1091901 83.13088742 40.67103403 84.12847467 37.23233032 85.12442017 C36.25586548 85.41059204 35.27940063 85.69676392 34.27334595 85.99160767 C33.33555298 86.26231079 32.39776001 86.53301392 31.43154907 86.81192017 C30.56747437 87.06328735 29.70339966 87.31465454 28.81314087 87.57363892 C26.54483032 88.12442017 26.54483032 88.12442017 23.54483032 88.12442017 C23.54483032 66.01442017 23.54483032 43.90442017 23.54483032 21.12442017 C13.64483032 21.12442017 3.74483032 21.12442017 -6.45516968 21.12442017 C-6.47579468 17.84504517 -6.49641968 14.56567017 -6.51766968 11.18692017 C-6.52677368 10.15188354 -6.53587769 9.11684692 -6.54525757 8.05044556 C-6.54900391 6.83602783 -6.54900391 6.83602783 -6.55282593 5.59707642 C-6.55806274 4.76442261 -6.56329956 3.9317688 -6.56869507 3.07388306 C-6.32866763 -1.0478785 -3.45191234 0.00670074 0 0 Z " fill="#757575" transform="translate(643.4551696777344,110.87557983398438)"/>
<path d="M0 0 C3.31517324 3.18991481 5.84335258 6.30467445 6.12025452 11.06913757 C6.11803391 11.8618959 6.11581329 12.65465424 6.11352539 13.47143555 C6.11341209 14.82249641 6.11341209 14.82249641 6.11329651 16.20085144 C6.10813522 17.16968765 6.10297394 18.13852386 6.09765625 19.13671875 C6.0962413 20.13129593 6.09482635 21.12587311 6.09336853 22.15058899 C6.08776761 25.32958982 6.07521496 28.50852043 6.0625 31.6875 C6.05748512 33.84179586 6.05292219 35.99609282 6.04882812 38.15039062 C6.03779788 43.43361774 6.02105886 48.71680385 6 54 C3.1062867 54.84137043 0.21040603 55.6733036 -2.6875 56.5 C-3.50412109 56.73847656 -4.32074219 56.97695312 -5.16210938 57.22265625 C-9.19171125 58.36464868 -12.76504847 59.34500623 -17 59 C-17.01458252 57.91058105 -17.02916504 56.82116211 -17.04418945 55.69873047 C-17.10236072 51.63932215 -17.17959182 47.58045763 -17.26245117 43.52148438 C-17.2956122 41.76799373 -17.32367142 40.01439862 -17.34643555 38.26074219 C-17.3801447 35.73327302 -17.43246692 33.20675362 -17.48828125 30.6796875 C-17.49467117 29.90132538 -17.5010611 29.12296326 -17.50764465 28.3210144 C-17.6353382 23.54519125 -18.28694822 20.09752072 -21 16 C-25.16238168 14.63922137 -27.58321702 14.89067987 -31.8125 16 C-35.1718936 18.10785481 -35.70869843 18.90028804 -36.62670898 22.60595703 C-37.49400862 28.16824625 -37.48887325 33.81943579 -37.625 39.4375 C-37.66367187 40.74138672 -37.70234375 42.04527344 -37.7421875 43.38867188 C-37.83606701 46.59230999 -37.92175154 49.79594832 -38 53 C-46.74612119 56.31813525 -46.74612119 56.31813525 -51.1875 57.6875 C-51.98542969 57.93886719 -52.78335937 58.19023437 -53.60546875 58.44921875 C-56 59 -56 59 -61 59 C-61 38.21 -61 17.42 -61 -4 C-53.41 -4 -45.82 -4 -38 -4 C-37.67 -2.68 -37.34 -1.36 -37 0 C-36.42894531 -0.46921875 -35.85789062 -0.9384375 -35.26953125 -1.421875 C-26.21615521 -7.71716574 -8.56584164 -6.72577196 0 0 Z " fill="#757575" transform="translate(537,139)"/>
<path d="M0 0 C4.87881285 5.01433543 5.59165387 11.07637117 5.58988953 17.77490234 C5.57440567 18.67418457 5.55892181 19.5734668 5.54296875 20.5 C5.53872391 21.44311035 5.53447906 22.3862207 5.53010559 23.35791016 C5.5134357 26.34307518 5.47580575 29.32754218 5.4375 32.3125 C5.42243804 34.34764644 5.40875229 36.38280355 5.39648438 38.41796875 C5.36357055 43.3830777 5.31186999 48.34767087 5.25 53.3125 C2.16882573 54.15395956 -0.91525621 54.98423062 -4 55.8125 C-4.87269531 56.05097656 -5.74539063 56.28945312 -6.64453125 56.53515625 C-7.48886719 56.76074219 -8.33320312 56.98632812 -9.203125 57.21875 C-10.36569824 57.53295898 -10.36569824 57.53295898 -11.55175781 57.85351562 C-13.75 58.3125 -13.75 58.3125 -17.75 58.3125 C-17.779729 56.83040039 -17.779729 56.83040039 -17.81005859 55.31835938 C-17.88665605 51.62052747 -17.97528562 47.92306158 -18.06738281 44.22558594 C-18.10545052 42.6312589 -18.14034037 41.03685245 -18.171875 39.44238281 C-18.21801263 37.1383849 -18.27592065 34.83492334 -18.3359375 32.53125 C-18.34748871 31.82883179 -18.35903992 31.12641357 -18.37094116 30.40270996 C-18.51564624 25.44973296 -19.28441025 21.05772664 -20.75 16.3125 C-23.75091161 14.10594734 -26.29067914 14.2100917 -29.875 14.5 C-34.12840866 15.29583615 -34.12840866 15.29583615 -36.75 18.3125 C-37.91402727 21.80458181 -37.96118508 24.70397772 -38.06640625 28.38671875 C-38.08718735 29.0705513 -38.10796844 29.75438385 -38.12937927 30.4589386 C-38.19466154 32.6391921 -38.25366017 34.81956405 -38.3125 37 C-38.35570553 38.47982986 -38.39932047 39.95964783 -38.44335938 41.43945312 C-38.55032083 45.06367622 -38.65164823 48.68803189 -38.75 52.3125 C-47.49612119 55.63063525 -47.49612119 55.63063525 -51.9375 57 C-52.73542969 57.25136719 -53.53335938 57.50273437 -54.35546875 57.76171875 C-56.75 58.3125 -56.75 58.3125 -61.75 58.3125 C-61.75 37.5225 -61.75 16.7325 -61.75 -4.6875 C-54.16 -4.6875 -46.57 -4.6875 -38.75 -4.6875 C-38.42 -3.3675 -38.09 -2.0475 -37.75 -0.6875 C-36.925 -1.326875 -36.1 -1.96625 -35.25 -2.625 C-25.19097826 -9.19130586 -9.56821359 -5.87140379 0 0 Z " fill="#757575" transform="translate(833.75,139.6875)"/>
<path d="M0 0 C7.59 0 15.18 0 23 0 C23 17.82 23 35.64 23 54 C15.40056059 57.16643309 7.73706177 60.18652299 0 63 C0 42.21 0 21.42 0 0 Z " fill="#757575" transform="translate(736,137)"/>
<path d="M0 0 C2.77675703 3.95477517 3.31692494 7.15266959 3.0625 11.9375 C2.15295453 15.63631825 1.37348688 17.91522484 -1.67578125 20.29296875 C-5.20514438 22.30093651 -7.51629124 22.94463913 -11.625 22.875 C-16.66706762 21.44799973 -19.06474804 20.3920866 -21.8125 15.8125 C-23.40077704 11.44473815 -23.52268124 7.32661993 -21.9375 2.9375 C-15.77537397 -4.76917982 -8.07782928 -5.67166737 0 0 Z " fill="#747474" transform="translate(756.9375,112.0625)"/>
<path d="M0 0 C4.76874164 -0.14849962 9.53613415 -0.25728023 14.30664062 -0.32958984 C15.9286239 -0.35973462 17.55044452 -0.40065941 19.171875 -0.45263672 C21.50561611 -0.52556613 23.83720111 -0.55947489 26.171875 -0.5859375 C26.89493835 -0.61690521 27.61800171 -0.64787292 28.36297607 -0.67977905 C30.42480469 -0.68115234 30.42480469 -0.68115234 34 0 C36.61939137 3.01450944 38 4.71597687 38 8.75 C36.73587535 11.59428047 35.86288897 11.89405193 33 13 C30.49804688 13.25878906 30.49804688 13.25878906 27.71875 13.265625 C26.71199219 13.26820313 25.70523437 13.27078125 24.66796875 13.2734375 C23.62253906 13.26570312 22.57710938 13.25796875 21.5 13.25 C19.93185547 13.26160156 19.93185547 13.26160156 18.33203125 13.2734375 C16.82189453 13.26957031 16.82189453 13.26957031 15.28125 13.265625 C14.36408203 13.26336914 13.44691406 13.26111328 12.50195312 13.25878906 C8.7293276 12.86856823 6.68461484 11.84163659 4.296875 8.90625 C3.78640625 8.1121875 3.2759375 7.318125 2.75 6.5 C1.96882812 5.30890625 1.96882812 5.30890625 1.171875 4.09375 C0 2 0 2 0 0 Z " fill="#2EC4C3" transform="translate(239,180)"/>
<path d="M0 0 C4.73201173 -0.19853527 9.46157717 -0.34326787 14.19677734 -0.43945312 C15.80527995 -0.47956057 17.41349308 -0.53406573 19.02099609 -0.60351562 C32.34933124 -1.16470868 32.34933124 -1.16470868 36.42480469 1.7109375 C38.89982475 4.88874104 40 6.94014994 40 11 C35.42879047 11.22372271 30.86080841 11.38632695 26.28540039 11.49438477 C24.73210116 11.53944773 23.1791796 11.60072454 21.62719727 11.67895508 C8.74228364 12.31182564 8.74228364 12.31182564 4.37939453 9.02685547 C0 3.51978616 0 3.51978616 0 0 Z " fill="#3FC1C1" transform="translate(228,164)"/>
<path d="M0 0 C0.78186676 0.00359528 1.56373352 0.00719055 2.36929321 0.01089478 C3.18873917 0.01074875 4.00818512 0.01060272 4.85246277 0.01045227 C7.57416385 0.01115164 10.29579737 0.01894515 13.01748657 0.02676392 C14.89935773 0.02862801 16.78122938 0.03005195 18.6631012 0.03105164 C23.62631561 0.0348775 28.58950096 0.04470836 33.55270386 0.05575562 C38.61322639 0.06596827 43.67375359 0.07054894 48.73428345 0.07559204 C58.67114521 0.08633057 68.60798535 0.10340781 78.54483032 0.12442017 C78.21483032 1.11442017 77.88483032 2.10442017 77.54483032 3.12442017 C50.48483032 2.79442017 23.42483032 2.46442017 -4.45516968 2.12442017 C-4.45516968 7.40442017 -4.45516968 12.68442017 -4.45516968 18.12442017 C4.20608893 19.3842396 12.81484275 19.2146267 21.54483032 19.12442017 C21.87483032 19.78442017 22.20483032 20.44442017 22.54483032 21.12442017 C12.97483032 21.12442017 3.40483032 21.12442017 -6.45516968 21.12442017 C-6.47579468 17.84504517 -6.49641968 14.56567017 -6.51766968 11.18692017 C-6.52677368 10.15188354 -6.53587769 9.11684692 -6.54525757 8.05044556 C-6.54900391 6.83602783 -6.54900391 6.83602783 -6.55282593 5.59707642 C-6.55806274 4.76442261 -6.56329956 3.9317688 -6.56869507 3.07388306 C-6.32866763 -1.0478785 -3.45191234 0.00670074 0 0 Z " fill="#6E6E6E" transform="translate(643.4551696777344,110.87557983398438)"/>
<path d="M0 0 C9.24 0 18.48 0 28 0 C28.33 1.32 28.66 2.64 29 4 C29.66 5.32 30.32 6.64 31 8 C21.1 8 11.2 8 1 8 C0.67 6.68 0.34 5.36 0 4 C5.61 4.33 11.22 4.66 17 5 C17 4.34 17 3.68 17 3 C11.72 3 6.44 3 1 3 C0.67 2.01 0.34 1.02 0 0 Z " fill="#08C9C5" transform="translate(223,149)"/>
<path d="M0 0 C0.66 0 1.32 0 2 0 C2 0.99 2 1.98 2 3 C2.66 3 3.32 3 4 3 C4.28875 3.804375 4.5775 4.60875 4.875 5.4375 C5.73262568 8.1326468 5.73262568 8.1326468 8 9 C8.7136591 11.31939207 9.3747292 13.65523449 10 16 C10.64199649 17.67632417 11.29894157 19.34750513 12 21 C12.66 21 13.32 21 14 21 C14 22.32 14 23.64 14 25 C14.66 25 15.32 25 16 25 C16.64616927 23.70766147 17.25372698 22.39495875 17.8125 21.0625 C19.21111438 18.63332766 20.63608934 17.47744416 23 16 C23.66 16 24.32 16 25 16 C25 17.32 25 18.64 25 20 C24.34 20 23.68 20 23 20 C23.04125 20.78375 23.0825 21.5675 23.125 22.375 C23 25 23 25 21 27 C21.66 28.98 22.32 30.96 23 33 C23.66 33 24.32 33 25 33 C25.33 34.98 25.66 36.96 26 39 C25.01 39 24.02 39 23 39 C22.34 39.66 21.68 40.32 21 41 C20.31224487 39.70751343 20.31224487 39.70751343 19.6105957 38.38891602 C17.88745698 35.15117454 16.16324078 31.91400786 14.4387207 28.67700195 C13.69657078 27.28360059 12.95470197 25.89004946 12.21313477 24.49633789 C11.1389476 22.47761933 10.06381056 20.45941002 8.98828125 18.44140625 C8.46755539 17.46320419 8.46755539 17.46320419 7.93630981 16.46524048 C5.62833968 12.1413656 3.25833176 7.85850319 0.80151367 3.61694336 C0 2 0 2 0 0 Z " fill="#2BC6C7" transform="translate(117,98)"/>
<path d="M0 0 C7.59 0 15.18 0 23 0 C23.33 1.32 23.66 2.64 24 4 C24.598125 3.484375 25.19625 2.96875 25.8125 2.4375 C26.534375 1.963125 27.25625 1.48875 28 1 C28.99 1.33 29.98 1.66 31 2 C25.58461538 6.06153846 25.58461538 6.06153846 22.625 5.75 C21.820625 5.37875 21.820625 5.37875 21 5 C21 4.01 21 3.02 21 2 C15.06 2 9.12 2 3 2 C2.13247307 5.47010772 1.8899962 7.86776617 1.93066406 11.37939453 C1.94107727 12.45375763 1.95149048 13.52812073 1.96221924 14.63504028 C1.97984314 15.78930511 1.99746704 16.94356995 2.015625 18.1328125 C2.03212097 19.32099579 2.04861694 20.50917908 2.06561279 21.73336792 C2.1030891 24.2433529 2.14363249 26.75329369 2.18701172 29.26318359 C2.24986641 33.11680985 2.29121526 36.97030429 2.33203125 40.82421875 C2.37106842 43.2604383 2.41138907 45.69663769 2.453125 48.1328125 C2.46741547 49.87028244 2.46741547 49.87028244 2.48199463 51.64285278 C2.50501648 52.71091156 2.52803833 53.77897034 2.55175781 54.87939453 C2.56587708 55.82219269 2.57999634 56.76499084 2.59454346 57.73635864 C2.72834412 58.48336029 2.86214478 59.23036194 3 60 C3.99 60.66 4.98 61.32 6 62 C5.505 62.495 5.505 62.495 5 63 C3.35 63 1.7 63 0 63 C0 42.21 0 21.42 0 0 Z " fill="#6B6B6B" transform="translate(476,135)"/>
<path d="M0 0 C2.16100662 2.05861478 3.686714 4.32501193 5 7 C5 7.66 5 8.32 5 9 C-5.23 8.67 -15.46 8.34 -26 8 C-25.01 6.35 -24.02 4.7 -23 3 C-22.34 3 -21.68 3 -21 3 C-21 3.66 -21 4.32 -21 5 C-15.06 4.505 -15.06 4.505 -9 4 C-12.63 3.67 -16.26 3.34 -20 3 C-20 2.34 -20 1.68 -20 1 C-19.31292969 1.01160156 -18.62585938 1.02320313 -17.91796875 1.03515625 C-17.01691406 1.04417969 -16.11585938 1.05320313 -15.1875 1.0625 C-13.84751953 1.07990234 -13.84751953 1.07990234 -12.48046875 1.09765625 C-7.98762478 0.92077263 -4.65228736 -0.64169481 0 0 Z " fill="#13C8C5" transform="translate(261,165)"/>
<path d="M0 0 C4.4609303 1.40200667 6.84677303 3.59783406 10 7 C10.598125 7.53625 11.19625 8.0725 11.8125 8.625 C13 10 13 10 13 13 C11.906875 12.9175 10.81375 12.835 9.6875 12.75 C8.470625 12.8325 7.25375 12.915 6 13 C5.01 14.32 4.02 15.64 3 17 C7.95 17.33 12.9 17.66 18 18 C18 18.66 18 19.32 18 20 C15.37472811 20.05382106 12.75055287 20.09358313 10.125 20.125 C9.37863281 20.14175781 8.63226563 20.15851563 7.86328125 20.17578125 C5.90805539 20.1933959 3.95257979 20.10320189 2 20 C1.34 19.34 0.68 18.68 0 18 C0 15 0 15 1.5 13.3125 C1.995 12.879375 2.49 12.44625 3 12 C2.67 11.01 2.34 10.02 2 9 C-1.96 9 -5.92 9 -10 9 C-10 8.34 -10 7.68 -10 7 C-9.22914063 6.96261719 -8.45828125 6.92523438 -7.6640625 6.88671875 C-6.15972656 6.78810547 -6.15972656 6.78810547 -4.625 6.6875 C-3.12839844 6.60048828 -3.12839844 6.60048828 -1.6015625 6.51171875 C-0.74304688 6.34285156 0.11546875 6.17398438 1 6 C1.66 5.01 2.32 4.02 3 3 C2.01 2.67 1.02 2.34 0 2 C0 1.34 0 0.68 0 0 Z " fill="#2EC5C6" transform="translate(224,115)"/>
<path d="M0 0 C3.4048833 2.94058103 4.83367814 6.104825 5.22705078 10.5871582 C5.21657715 11.48265381 5.20610352 12.37814941 5.1953125 13.30078125 C5.19031738 14.18161377 5.18532227 15.06244629 5.18017578 15.9699707 C5.16196777 17.07300537 5.14375977 18.17604004 5.125 19.3125 C5.08375 22.839375 5.0425 26.36625 5 30 C-8.86 30 -22.72 30 -37 30 C-37 29.34 -37 28.68 -37 28 C-32.58919646 27.97509536 -28.17843129 27.95704396 -23.76757812 27.94506836 C-22.27017503 27.94007057 -20.77277673 27.9332701 -19.27539062 27.92456055 C-17.11066495 27.91229377 -14.94600435 27.90672603 -12.78125 27.90234375 C-10.8331543 27.89448853 -10.8331543 27.89448853 -8.84570312 27.88647461 C-4.81913327 28.0053392 -0.98584904 28.43973231 3 29 C2.88880836 25.66605873 2.75850266 22.33311651 2.625 19 C2.5940625 18.06542969 2.563125 17.13085938 2.53125 16.16796875 C2.2934434 10.50024472 1.58129952 5.45098372 0 0 Z " fill="#6A6A6A" transform="translate(620,141)"/>
<path d="M0 0 C4.03485011 5.06905902 6.7220008 10.8932009 9.6875 16.625 C10.29400391 17.78257813 10.90050781 18.94015625 11.52539062 20.1328125 C12.09837891 21.23625 12.67136719 22.3396875 13.26171875 23.4765625 C13.78725342 24.48799316 14.31278809 25.49942383 14.85424805 26.54150391 C16 29 16 29 16 31 C14.35 31 12.7 31 11 31 C11.061875 30.0925 11.12375 29.185 11.1875 28.25 C10.97961136 24.64659694 10.61597369 23.43556171 8 21 C5.48051222 20.26259783 5.48051222 20.26259783 3 20 C2.34 19.67 1.68 19.34 1 19 C1.165 18.236875 1.33 17.47375 1.5 16.6875 C2.159766 13.14125777 2.0170896 11.0587455 1 7.5625 C0 4 0 4 0 0 Z M8 32 C8.66 32 9.32 32 10 32 C10.33 33.32 10.66 34.64 11 36 C10.01 36 9.02 36 8 36 C8 34.68 8 33.36 8 32 Z " fill="#28C6C5" transform="translate(145,92)"/>
<path d="M0 0 C1.32 0 2.64 0 4 0 C5.75 2.5 5.75 2.5 7 5 C6.34 5 5.68 5 5 5 C5.66 6.32 6.32 7.64 7 9 C7.4125 8.030625 7.825 7.06125 8.25 6.0625 C10 3 10 3 12.1875 2.125 C13.0846875 2.063125 13.0846875 2.063125 14 2 C14.26388021 5.69432296 14.14351457 7.71871145 12.4375 11.0625 C10.80317347 13.82948268 10.80317347 13.82948268 11.0625 16.5 C11.97092435 19.22175732 11.97092435 19.22175732 14.125 22.125 C14.74375 23.07375 15.3625 24.0225 16 25 C15.67 25.99 15.34 26.98 15 28 C14.65219482 27.39003174 14.30438965 26.78006348 13.94604492 26.15161133 C12.36043661 23.3715801 10.7739764 20.59203592 9.1875 17.8125 C8.64029297 16.85279297 8.09308594 15.89308594 7.52929688 14.90429688 C6.73168945 13.50727539 6.73168945 13.50727539 5.91796875 12.08203125 C5.18743286 10.80162964 5.18743286 10.80162964 4.44213867 9.49536133 C3.43201176 7.74751858 2.38731973 6.01940927 1.31762695 4.30737305 C0 2 0 2 0 0 Z " fill="#2DC3C3" transform="translate(144,148)"/>
<path d="M0 0 C0.6911792 0.13712402 1.3823584 0.27424805 2.09448242 0.41552734 C12.80873369 2.31684098 23.45828883 2.4442377 34.3125 2.625 C36.22853158 2.66327198 38.14454765 2.7023287 40.06054688 2.7421875 C44.70690219 2.83716344 49.35333747 2.9215511 54 3 C54 3.66 54 4.32 54 5 C48.48650395 5.04980921 42.97314179 5.08591163 37.45947266 5.10986328 C35.58770462 5.11985894 33.71595195 5.13345997 31.84423828 5.15087891 C29.13830754 5.17541268 26.43258501 5.18654768 23.7265625 5.1953125 C22.90322418 5.20563507 22.07988586 5.21595764 21.2315979 5.22659302 C13.66097542 5.22802243 6.0061151 5.01090239 0 0 Z " fill="#646464" transform="translate(302,193)"/>
<path d="M0 0 C0.33 0 0.66 0 1 0 C1.33 9.57 1.66 19.14 2 29 C11.98426708 28.37234576 11.98426708 28.37234576 21 25 C21.33 16.75 21.66 8.5 22 0 C22.33 0 22.66 0 23 0 C23 8.91 23 17.82 23 27 C18.6996875 28.2375 18.6996875 28.2375 14.3125 29.5 C12.97119019 29.89155273 12.97119019 29.89155273 11.6027832 30.29101562 C10.88437256 30.49404297 10.16596191 30.69707031 9.42578125 30.90625 C8.69786377 31.11572266 7.96994629 31.32519531 7.2199707 31.54101562 C5 32 5 32 0 32 C0 21.44 0 10.88 0 0 Z " fill="#6A6A6A" transform="translate(520,166)"/>
<path d="M0 0 C2.33524782 2.25740623 4.18705073 4.2805761 6 7 C6 7.99 6 8.98 6 10 C1.41041127 10.1985843 -3.17665268 10.34328733 -7.76953125 10.43945312 C-9.3295448 10.47955298 -10.88926009 10.53405278 -12.44824219 10.60351562 C-25.46017966 11.16852951 -25.46017966 11.16852951 -29.39355469 8.18359375 C-30.90280334 6.17126221 -32.03747173 4.31843197 -33 2 C-29.83884224 3.36983503 -29.0072908 3.9890638 -27 7 C-23.99147392 7.4181217 -23.99147392 7.4181217 -20.4609375 7.29296875 C-19.15898437 7.28330078 -17.85703125 7.27363281 -16.515625 7.26367188 C-15.13541077 7.23860388 -13.75520244 7.21320902 -12.375 7.1875 C-10.98699337 7.17245517 -9.59897133 7.15876641 -8.2109375 7.14648438 C-4.80690491 7.1110257 -1.40364378 7.06160298 2 7 C1.484375 6.401875 0.96875 5.80375 0.4375 5.1875 C-0.036875 4.465625 -0.51125 3.74375 -1 3 C-0.67 2.01 -0.34 1.02 0 0 Z " fill="#4BBDBE" transform="translate(251,149)"/>
<path d="M0 0 C0.33 0.99 0.66 1.98 1 3 C-0.98 3.33 -2.96 3.66 -5 4 C-3.71802734 4.59748047 -3.71802734 4.59748047 -2.41015625 5.20703125 C-1.30542969 5.73683594 -0.20070313 6.26664063 0.9375 6.8125 C2.03964844 7.33457031 3.14179687 7.85664062 4.27734375 8.39453125 C7 10 7 10 8 13 C7.01 13 6.02 13 5 13 C5 12.34 5 11.68 5 11 C2.69 10.67 0.38 10.34 -2 10 C-2 10.99 -2 11.98 -2 13 C-2.99 13 -3.98 13 -5 13 C-5.33 11.35 -5.66 9.7 -6 8 C-6.99 8.33 -7.98 8.66 -9 9 C-9.33 7.02 -9.66 5.04 -10 3 C-6.68152292 -0.06320961 -4.44849969 -0.3033068 0 0 Z " fill="#26C6C5" transform="translate(105,51)"/>
<path d="M0 0 C0.33 0 0.66 0 1 0 C1 2.64 1 5.28 1 8 C0.01 8.33 -0.98 8.66 -2 9 C-2.33 10.98 -2.66 12.96 -3 15 C5.91 15 14.82 15 24 15 C23.67 15.66 23.34 16.32 23 17 C18.72939382 17.11589162 14.45919016 17.18714802 10.1875 17.25 C8.97255859 17.28351563 7.75761719 17.31703125 6.50585938 17.3515625 C4.76079102 17.37089844 4.76079102 17.37089844 2.98046875 17.390625 C1.37014771 17.4220459 1.37014771 17.4220459 -0.27270508 17.45410156 C-3 17 -3 17 -4.90893555 15.15136719 C-6 13 -6 13 -5.4375 10.1875 C-3.83041264 6.62395847 -2.01087676 3.35146127 0 0 Z " fill="#53BDBB" transform="translate(28,176)"/>
<path d="M0 0 C0.66 0.66 1.32 1.32 2 2 C1.02752319 3.26251587 1.02752319 3.26251587 0.03540039 4.55053711 C-2.30338713 8.07551197 -2.52899124 10.94133877 -2.56640625 15.19140625 C-2.57570412 16.19300026 -2.57570412 16.19300026 -2.58518982 17.21482849 C-2.59225227 18.61740674 -2.58917664 20.02006944 -2.57641602 21.42260742 C-2.56250777 23.56130447 -2.59670829 25.69565337 -2.63476562 27.83398438 C-2.63571665 29.20312606 -2.6338589 30.57227319 -2.62890625 31.94140625 C-2.62963135 33.17576416 -2.63035645 34.41012207 -2.63110352 35.68188477 C-1.83886083 39.84721178 -0.11233516 41.23783728 3 44 C3 44.66 3 45.32 3 46 C0.5625 45.25 0.5625 45.25 -2 44 C-2.625 41.9375 -2.625 41.9375 -3 40 C-3.99 39.67 -4.98 39.34 -6 39 C-5.90592956 34.97944475 -5.79972181 30.95940512 -5.68261719 26.93945312 C-5.64450798 25.57398079 -5.60962464 24.20841423 -5.578125 22.84277344 C-5.53208122 20.87152393 -5.47318951 18.90058796 -5.4140625 16.9296875 C-5.3826416 15.74616699 -5.3512207 14.56264648 -5.31884766 13.34326172 C-4.81494787 8.05964486 -3.43432616 4.0587491 0 0 Z " fill="#6A6A6A" transform="translate(320,132)"/>
<path d="M0 0 C0.66 1.32 1.32 2.64 2 4 C1.01 4.99 0.02 5.98 -1 7 C-0.34 7.33 0.32 7.66 1 8 C0.01 8.33 -0.98 8.66 -2 9 C-1.319375 9.721875 -0.63875 10.44375 0.0625 11.1875 C2 14 2 14 1.75 16.8125 C1.5025 17.534375 1.255 18.25625 1 19 C-0.65 18.67 -2.3 18.34 -4 18 C-4 17.34 -4 16.68 -4 16 C-5.65 16.66 -7.3 17.32 -9 18 C-7.45614871 13.85967154 -5.48971062 10.06446947 -3.375 6.1875 C-3.05015625 5.59001953 -2.7253125 4.99253906 -2.390625 4.37695312 C-1.59620849 2.91662865 -0.79844624 1.45812509 0 0 Z " fill="#32C3C3" transform="translate(60,117)"/>
<path d="M0 0 C1.98 0 3.96 0 6 0 C5.21115518 7.85625042 3.00634759 12.78198553 -3 18 C-6.36474079 20.07060972 -8.07208685 21 -12 21 C-10.40293229 17.80586459 -7.17307425 17.00806226 -4.03125 15.51171875 C-1.78559485 14.13881726 -1.78559485 14.13881726 -1.15625 11.51953125 C-0.83433157 8.87310249 -0.83433157 8.87310249 -2 6 C-1.0625 2.8125 -1.0625 2.8125 0 0 Z " fill="#6F6F6F" transform="translate(619,176)"/>
<path d="M0 0 C-0.20625 0.61875 -0.4125 1.2375 -0.625 1.875 C-0.74875 2.57625 -0.8725 3.2775 -1 4 C-0.34 4.66 0.32 5.32 1 6 C0.0653305 7.58500588 -0.87286263 9.16793416 -1.8125 10.75 C-2.33457031 11.63171875 -2.85664062 12.5134375 -3.39453125 13.421875 C-4.82546696 15.71972797 -6.33894423 17.86506946 -8 20 C-8.33 17.03 -8.66 14.06 -9 11 C-9.66 11 -10.32 11 -11 11 C-10.34 9.68 -9.68 8.36 -9 7 C-8.34 7.33 -7.68 7.66 -7 8 C-7 8.66 -7 9.32 -7 10 C-5.00016466 9.20882096 -5.00016466 9.20882096 -3 8 C-2.67 7.01 -2.34 6.02 -2 5 C-3.98 5 -5.96 5 -8 5 C-8 4.01 -8 3.02 -8 2 C-3.71900826 -1.23966942 -3.71900826 -1.23966942 0 0 Z " fill="#2EC2C2" transform="translate(107,85)"/>
<path d="M0 0 C1.4540625 0.0309375 1.4540625 0.0309375 2.9375 0.0625 C3.2675 0.7225 3.5975 1.3825 3.9375 2.0625 C1.9575 2.0625 -0.0225 2.0625 -2.0625 2.0625 C-2.0625 7.3425 -2.0625 12.6225 -2.0625 18.0625 C6.5987586 19.32231943 15.20751243 19.15270653 23.9375 19.0625 C24.2675 19.7225 24.5975 20.3825 24.9375 21.0625 C15.3675 21.0625 5.7975 21.0625 -4.0625 21.0625 C-4.083125 17.783125 -4.10375 14.50375 -4.125 11.125 C-4.134104 10.08996338 -4.14320801 9.05492676 -4.15258789 7.98852539 C-4.15633423 6.77410767 -4.15633423 6.77410767 -4.16015625 5.53515625 C-4.16539307 4.70250244 -4.17062988 3.86984863 -4.17602539 3.01196289 C-3.98525275 -0.26399306 -3.34296677 0.06822381 0 0 Z " fill="#696969" transform="translate(641.0625,110.9375)"/>
<path d="M0 0 C3.18369762 3.86591853 5.40905986 8.22373715 7.75 12.625 C8.17410156 13.40101562 8.59820312 14.17703125 9.03515625 14.9765625 C9.43089844 15.7190625 9.82664063 16.4615625 10.234375 17.2265625 C10.59756836 17.90283691 10.96076172 18.57911133 11.33496094 19.27587891 C11.55442383 19.84483887 11.77388672 20.41379883 12 21 C11.67 21.66 11.34 22.32 11 23 C10.01 21.35 9.02 19.7 8 18 C7.67 18.66 7.34 19.32 7 20 C5.109375 19.78515625 5.109375 19.78515625 3 19 C1.953125 16.93359375 1.953125 16.93359375 1.25 14.4375 C1.00765625 13.61121094 0.7653125 12.78492187 0.515625 11.93359375 C0.34546875 11.29550781 0.1753125 10.65742187 0 10 C0.66 10 1.32 10 2 10 C2 8.68 2 7.36 2 6 C1.01 5.67 0.02 5.34 -1 5 C-0.67 3.35 -0.34 1.7 0 0 Z " fill="#24C1BE" transform="translate(133,69)"/>
<path d="M0 0 C8.91 0 17.82 0 27 0 C27.33 1.32 27.66 2.64 28 4 C28.63654342 5.3479743 29.29605388 6.68596724 30 8 C21.42857143 8.14285714 21.42857143 8.14285714 18 7 C18.66 5.35 19.32 3.7 20 2 C13.4 1.67 6.8 1.34 0 1 C0 0.67 0 0.34 0 0 Z " fill="#28C8C8" transform="translate(224,149)"/>
<path d="M0 0 C0.66 0 1.32 0 2 0 C2 0.66 2 1.32 2 2 C2.639375 2.226875 3.27875 2.45375 3.9375 2.6875 C6 4 6 4 6.75 6.625 C6.87375 7.800625 6.87375 7.800625 7 9 C6.01 9.66 5.02 10.32 4 11 C3.26393501 14.56769552 3.26393501 14.56769552 3 18 C0.74754119 15.31158141 -0.88213958 13.35358125 -2 10 C-4.01508358 9.26676204 -4.01508358 9.26676204 -6 9 C-3.39417629 8.06934867 -2.35801776 7.85082593 0.25 8.9375 C0.8275 9.288125 1.405 9.63875 2 10 C1.505 9.195625 1.505 9.195625 1 8.375 C-0.22699204 5.4608939 -0.14233286 3.13132292 0 0 Z " fill="#2CC6CA" transform="translate(114,80)"/>
<path d="M0 0 C2 1 2 1 4 3 C4.36933645 5.75372909 4.18336678 8.20365661 4 11 C4.99 11.33 5.98 11.66 7 12 C6.67 13.65 6.34 15.3 6 17 C5.34 17 4.68 17 4 17 C3.67 15.68 3.34 14.36 3 13 C1.68 13 0.36 13 -1 13 C-1 10.66666667 -1 8.33333333 -1 6 C-1.33 6.66 -1.66 7.32 -2 8 C-2.66 8 -3.32 8 -4 8 C-3.67 6.68 -3.34 5.36 -3 4 C-2.34 4 -1.68 4 -1 4 C-0.67 2.68 -0.34 1.36 0 0 Z " fill="#0EC9C7" transform="translate(199,128)"/>
<path d="M0 0 C0.66 0.33 1.32 0.66 2 1 C2.02914348 5.20831868 2.04684712 9.41661122 2.0625 13.625 C2.07087891 14.81480469 2.07925781 16.00460938 2.08789062 17.23046875 C2.09111328 18.38417969 2.09433594 19.53789062 2.09765625 20.7265625 C2.10289307 21.78439941 2.10812988 22.84223633 2.11352539 23.93212891 C1.99875578 27.03362346 1.57696282 29.95347657 1 33 C-6.42857143 35.42857143 -6.42857143 35.42857143 -10 34 C-7 32 -7 32 -1 31 C-0.67 20.77 -0.34 10.54 0 0 Z " fill="#464646" transform="translate(690,160)"/>
<path d="M0 0 C0 2 0 4 0 6 C0.99 6.33 1.98 6.66 3 7 C2.67 7.99 2.34 8.98 2 10 C0.02 10.33 -1.96 10.66 -4 11 C-4 12.32 -4 13.64 -4 15 C-4.99 15 -5.98 15 -7 15 C-7 16.65 -7 18.3 -7 20 C-7.66 20 -8.32 20 -9 20 C-9.97729986 16.85092267 -10.1417479 15.36339007 -8.92578125 12.24609375 C-8.39339844 11.31925781 -7.86101562 10.39242187 -7.3125 9.4375 C-6.79300781 8.50808594 -6.27351563 7.57867187 -5.73828125 6.62109375 C-4.0421021 4.06348429 -2.24599218 2.07962239 0 0 Z " fill="#27C6C5" transform="translate(95,55)"/>
<path d="M0 0 C1.19625 -0.01224609 2.3925 -0.02449219 3.625 -0.03710938 C4.76453125 -0.03904297 5.9040625 -0.04097656 7.078125 -0.04296875 C8.63901855 -0.04913208 8.63901855 -0.04913208 10.23144531 -0.05541992 C12.75 0.1875 12.75 0.1875 14.75 2.1875 C11.63045872 3.74727064 8.32040616 3.30854126 4.8984375 3.28515625 C4.12440582 3.2837413 3.35037415 3.28232635 2.55288696 3.28086853 C0.07688558 3.27526403 -2.39902588 3.26271083 -4.875 3.25 C-6.55208203 3.24498558 -8.22916547 3.24042257 -9.90625 3.23632812 C-14.02086806 3.22529315 -18.13541878 3.20802554 -22.25 3.1875 C-15.79591961 -1.11522026 -7.48874161 0.00408774 0 0 Z M-24.25 3.1875 C-23.59 3.5175 -22.93 3.8475 -22.25 4.1875 C-23.9 4.8475 -25.55 5.5075 -27.25 6.1875 C-26.26 5.1975 -25.27 4.2075 -24.25 3.1875 Z " fill="#656565" transform="translate(591.25,132.8125)"/>
<path d="M0 0 C0.66 0 1.32 0 2 0 C2.33 1.65 2.66 3.3 3 5 C1.02 5.99 1.02 5.99 -1 7 C-1 7.99 -1 8.98 -1 10 C0.98 10 2.96 10 5 10 C4.67 11.32 4.34 12.64 4 14 C2.68 14.33 1.36 14.66 0 15 C-0.33 14.34 -0.66 13.68 -1 13 C-3.02463255 12.34786708 -3.02463255 12.34786708 -5 12 C-5 10.35 -5 8.7 -5 7 C-4.01 6.67 -3.02 6.34 -2 6 C-1.855625 5.195625 -1.71125 4.39125 -1.5625 3.5625 C-1 1 -1 1 0 0 Z " fill="#0CCAC7" transform="translate(100,80)"/>
<path d="M0 0 C0.99 0.66 1.98 1.32 3 2 C-1.85166093 3.56575099 -5.87803721 4.24108411 -11.02734375 4.1953125 C-12.95610352 4.18564453 -12.95610352 4.18564453 -14.92382812 4.17578125 C-16.26172154 4.15907601 -17.59961217 4.14214619 -18.9375 4.125 C-20.30272783 4.11495322 -21.6679628 4.10583036 -23.03320312 4.09765625 C-26.35565199 4.07417605 -29.67773321 4.04133359 -33 4 C-32.67 3.34 -32.34 2.68 -32 2 C-30.70582153 1.96241577 -30.70582153 1.96241577 -29.38549805 1.92407227 C-26.18176231 1.82888615 -22.97818463 1.72965556 -19.7746582 1.62768555 C-18.38864017 1.58439782 -17.00257094 1.54271836 -15.61645508 1.50268555 C-13.62308202 1.44483416 -11.62989435 1.38070224 -9.63671875 1.31640625 C-8.43748779 1.27974854 -7.23825684 1.24309082 -6.00268555 1.20532227 C-2.95005651 1.12266975 -2.95005651 1.12266975 0 0 Z " fill="#6A6A6A" transform="translate(448,194)"/>
<path d="M0 0 C3.63 0 7.26 0 11 0 C11 0.66 11 1.32 11 2 C12.32 2.33 13.64 2.66 15 3 C13.8125 5 13.8125 5 12 7 C9.17995509 7.70501123 7.6410274 7.36116097 5.12109375 5.94140625 C3.30266421 4.70340473 1.59483202 3.51669904 0 2 C0 1.34 0 0.68 0 0 Z " fill="#06CAC3" transform="translate(213,115)"/>
<path d="M0 0 C0.66 0 1.32 0 2 0 C1.79375 0.721875 1.5875 1.44375 1.375 2.1875 C0.93584572 5.48115707 1.66396516 7.01356919 3 10 C3 10.99 3 11.98 3 13 C3.99 13.33 4.98 13.66 6 14 C5.67 15.32 5.34 16.64 5 18 C2.47411298 15.63707344 1.11179163 14.33537489 0 11 C-0.99 11.33 -1.98 11.66 -3 12 C-3 8.7 -3 5.4 -3 2 C-2.01 2 -1.02 2 0 2 C0 1.34 0 0.68 0 0 Z " fill="#08CAC8" transform="translate(133,75)"/>
<path d="M0 0 C0.80824219 0.10183594 1.61648437 0.20367187 2.44921875 0.30859375 C3.06410156 0.39238281 3.67898437 0.47617188 4.3125 0.5625 C0.32897791 2.87153272 -2.18864053 2.42766528 -6.6875 1.5625 C-6.0275 2.8825 -5.3675 4.2025 -4.6875 5.5625 C-6.25 7.125 -6.25 7.125 -8.6875 8.5625 C-12.4375 8.25 -12.4375 8.25 -15.6875 7.5625 C-15.6875 6.9025 -15.6875 6.2425 -15.6875 5.5625 C-14.04296875 4.30859375 -14.04296875 4.30859375 -11.875 3 C-11.16730469 2.56558594 -10.45960938 2.13117188 -9.73046875 1.68359375 C-6.21361536 -0.24630476 -3.89506998 -0.50805261 0 0 Z " fill="#2FC2C0" transform="translate(219.6875,113.4375)"/>
<path d="M0 0 C1.98 0 3.96 0 6 0 C5.67 1.98 5.34 3.96 5 6 C5.66 6 6.32 6 7 6 C7 6.99 7 7.98 7 9 C15.91 9 24.82 9 34 9 C34 9.33 34 9.66 34 10 C29.45920109 10.23290742 24.91993906 10.37462237 20.375 10.5 C18.44720703 10.60054687 18.44720703 10.60054687 16.48046875 10.703125 C7.14874008 10.8965287 7.14874008 10.8965287 3.76269531 8.25390625 C0 3.36085391 0 3.36085391 0 0 Z " fill="#3FC2C2" transform="translate(228,164)"/>
<path d="M0 0 C2.77291754 1.52375857 5.47019733 3.04038922 7.8125 5.1875 C7.8125 5.8475 7.8125 6.5075 7.8125 7.1875 C5.58556531 6.15356604 3.83858314 5.21088488 2 3.5625 C-1.12116091 1.60062743 -3.57352252 1.92466527 -7.1875 2.1875 C-8.1775 2.5175 -9.1675 2.8475 -10.1875 3.1875 C-13.375 2.25 -13.375 2.25 -16.1875 1.1875 C-11.62906828 -3.37093172 -5.43893418 -2.6585835 0 0 Z " fill="#38C0BD" transform="translate(117.1875,49.8125)"/>
<path d="M0 0 C0.33 0 0.66 0 1 0 C1 3.63 1 7.26 1 11 C3.62114345 12.31057173 5.07580543 11.63678063 7.7890625 10.8125 C11.51038909 9.44494535 15.06858775 7.73002571 18.64453125 6.0234375 C21 5 21 5 23 5 C22 8 22 8 19.86694336 9.07495117 C18.95050049 9.39439697 18.03405762 9.71384277 17.08984375 10.04296875 C16.10048828 10.39423828 15.11113281 10.74550781 14.09179688 11.10742188 C12.53041992 11.64206055 12.53041992 11.64206055 10.9375 12.1875 C9.89271484 12.55552734 8.84792969 12.92355469 7.77148438 13.30273438 C5.18463737 14.21226506 2.59276467 15.10747839 0 16 C0 10.72 0 5.44 0 0 Z " fill="#686868" transform="translate(736,184)"/>
<path d="M0 0 C1.9375 0.625 1.9375 0.625 4 2 C4.75 5.125 4.75 5.125 5 8 C4.34 8 3.68 8 3 8 C3 9.98 3 11.96 3 14 C3.99 14.33 4.98 14.66 6 15 C6 15.99 6 16.98 6 18 C5.01 18 4.02 18 3 18 C0.50022457 14.66696609 0 13.26696398 0 9 C0.66 9 1.32 9 2 9 C2 7.68 2 6.36 2 5 C1.34 5 0.68 5 0 5 C0 3.35 0 1.7 0 0 Z " fill="#0ACAC6" transform="translate(146,111)"/>
<path d="M0 0 C0.33 0.66 0.66 1.32 1 2 C0.67 2.99 0.34 3.98 0 5 C0.66 5 1.32 5 2 5 C4.09350689 8.4019487 4.17942163 11.05272412 4 15 C3.34 15 2.68 15 2 15 C1.34 13.02 0.68 11.04 0 9 C-0.66 9 -1.32 9 -2 9 C-2.33 8.34 -2.66 7.68 -3 7 C-3.33 7.99 -3.66 8.98 -4 10 C-4.99 10.33 -5.98 10.66 -7 11 C-5.5140084 6.40693504 -3.14985318 3.56430755 0 0 Z " fill="#2FC3C1" transform="translate(202,122)"/>
<path d="M0 0 C1.8253125 0.2784375 1.8253125 0.2784375 3.6875 0.5625 C7.02977939 0.98993182 9.71968417 0.92258883 13 0 C12.67 1.32 12.34 2.64 12 4 C10.68 4.33 9.36 4.66 8 5 C8 5.66 8 6.32 8 7 C7.01 7 6.02 7 5 7 C5 6.34 5 5.68 5 5 C4.01 5 3.02 5 2 5 C2 4.34 2 3.68 2 3 C1.34 3 0.68 3 0 3 C0 2.01 0 1.02 0 0 Z " fill="#08CAC5" transform="translate(112,57)"/>
<path d="M0 0 C2.31 0 4.62 0 7 0 C5.515 1.485 5.515 1.485 4 3 C3.67 2.67 3.34 2.34 3 2 C2.67 8.6 2.34 15.2 2 22 C1.34 22.33 0.68 22.66 0 23 C0 15.41 0 7.82 0 0 Z " fill="#6A6A6A" transform="translate(899,112)"/>
<path d="M0 0 C8.25 0 16.5 0 25 0 C24.67 0.99 24.34 1.98 24 3 C22.68 2.67 21.36 2.34 20 2 C19.67 2.66 19.34 3.32 19 4 C18.67 3.34 18.34 2.68 18 2 C15.58063683 1.83750546 13.17218141 1.71902183 10.75 1.625 C9.72712891 1.54958984 9.72712891 1.54958984 8.68359375 1.47265625 C6.38365363 1.3431629 6.38365363 1.3431629 3 2 C0.60067374 4.91023425 0.60067374 4.91023425 -1 8 C-1.66 8 -2.32 8 -3 8 C-2.690625 7.236875 -2.38125 6.47375 -2.0625 5.6875 C-1.32106407 3.81210323 -0.63771783 1.91315348 0 0 Z " fill="#676767" transform="translate(439,176)"/>
<path d="M0 0 C0.33 0.99 0.66 1.98 1 3 C1.66 3 2.32 3 3 3 C3.33 2.01 3.66 1.02 4 0 C4.66 0.33 5.32 0.66 6 1 C6 1.66 6 2.32 6 3 C5.34 3 4.68 3 4 3 C3.938125 3.94875 3.87625 4.8975 3.8125 5.875 C3.544375 6.90625 3.27625 7.9375 3 9 C0.4375 10.375 0.4375 10.375 -2 11 C-2 10.34 -2 9.68 -2 9 C-1.34 9 -0.68 9 0 9 C-0.33 7.68 -0.66 6.36 -1 5 C-1.33 5.66 -1.66 6.32 -2 7 C-2.66 7 -3.32 7 -4 7 C-2.92598892 4.08482708 -2.22189824 2.22189824 0 0 Z " fill="#31C5C4" transform="translate(194,133)"/>
<path d="M0 0 C2.60631517 2.34568365 4.14404349 4.76700181 5.75 7.875 C6.19859375 8.71804687 6.6471875 9.56109375 7.109375 10.4296875 C8.14078274 13.40629406 7.87686799 15.01651012 7 18 C6.34 18 5.68 18 5 18 C5 17.34 5 16.68 5 16 C4.34 16 3.68 16 3 16 C3.061875 14.989375 3.12375 13.97875 3.1875 12.9375 C2.97294038 8.43174797 1.89715079 6.03144543 0 2 C0 1.34 0 0.68 0 0 Z " fill="#2BC4C1" transform="translate(171,142)"/>
<path d="M0 0 C0.66 0 1.32 0 2 0 C1.27991594 4.60853797 -0.31295939 8.67237409 -2 13 C-7.75 12.25 -7.75 12.25 -10 10 C-7.09399739 8.74335022 -5.20395416 8 -2 8 C-1.7834375 6.576875 -1.7834375 6.576875 -1.5625 5.125 C-1 2 -1 2 0 0 Z " fill="#0AC9C6" transform="translate(78,100)"/>
<path d="M0 0 C4.96432365 -0.29201904 8.03701574 -0.14707573 12 3 C12.33 3.99 12.66 4.98 13 6 C12.01 6 11.02 6 10 6 C10 5.34 10 4.68 10 4 C7.69 3.67 5.38 3.34 3 3 C3 3.99 3 4.98 3 6 C2.01 6 1.02 6 0 6 C-1.125 2.25 -1.125 2.25 0 0 Z " fill="#0AC9C7" transform="translate(100,58)"/>
<path d="M0 0 C0.66 0.33 1.32 0.66 2 1 C1.01 2.485 1.01 2.485 0 4 C4.95 4.33 9.9 4.66 15 5 C15 5.66 15 6.32 15 7 C12.37472811 7.05382106 9.75055287 7.09358313 7.125 7.125 C6.37863281 7.14175781 5.63226563 7.15851563 4.86328125 7.17578125 C2.90805539 7.1933959 0.95257979 7.10320189 -1 7 C-1.66 6.34 -2.32 5.68 -3 5 C-3 4.01 -3 3.02 -3 2 C-2.01 1.34 -1.02 0.68 0 0 Z " fill="#43BFC0" transform="translate(227,128)"/>
<path d="M0 0 C0.66 0 1.32 0 2 0 C1.33501617 4.38889325 -0.18757677 7.9811485 -2 12 C-2.99 12 -3.98 12 -5 12 C-5 8.7 -5 5.4 -5 2 C-3.68 2.33 -2.36 2.66 -1 3 C-0.67 2.01 -0.34 1.02 0 0 Z " fill="#09C9C6" transform="translate(40,164)"/>
<path d="M0 0 C1.32 0.66 2.64 1.32 4 2 C4 3.98 4 5.96 4 8 C2.329375 8.4640625 2.329375 8.4640625 0.625 8.9375 C-2.7945155 9.82326483 -2.7945155 9.82326483 -5 11 C-3.77472971 6.94718288 -2.30119506 3.55639236 0 0 Z " fill="#2BC7C9" transform="translate(42,150)"/>
<path d="M0 0 C0.33 0.99 0.66 1.98 1 3 C1.99 3.33 2.98 3.66 4 4 C4 5.32 4 6.64 4 8 C3.34 8 2.68 8 2 8 C2 8.66 2 9.32 2 10 C0.68 10.33 -0.64 10.66 -2 11 C-2 9.68 -2 8.36 -2 7 C-2.66 6.67 -3.32 6.34 -4 6 C-2.68 4.02 -1.36 2.04 0 0 Z " fill="#27C3C3" transform="translate(184,148)"/>
<path d="M0 0 C0.66 0 1.32 0 2 0 C0.77472971 4.05281712 -0.69880494 7.44360764 -3 11 C-4.65 10.67 -6.3 10.34 -8 10 C-6.8125 7.0625 -6.8125 7.0625 -5 4 C-2.3125 3.125 -2.3125 3.125 0 3 C0 2.01 0 1.02 0 0 Z " fill="#2AC6C6" transform="translate(81,134)"/>
<path d="M0 0 C0.58394531 0.21398437 1.16789063 0.42796875 1.76953125 0.6484375 C-0.21046875 1.6384375 -0.21046875 1.6384375 -2.23046875 2.6484375 C-2.23046875 3.6384375 -2.23046875 4.6284375 -2.23046875 5.6484375 C-4.21046875 5.9784375 -6.19046875 6.3084375 -8.23046875 6.6484375 C-8.23046875 9.9484375 -8.23046875 13.2484375 -8.23046875 16.6484375 C-10.23046875 14.6484375 -10.23046875 14.6484375 -10.453125 12.6953125 C-10.12614182 8.00589521 -9.46230687 5.26354058 -5.91796875 2.0234375 C-2.89393716 -0.45613721 -2.89393716 -0.45613721 0 0 Z " fill="#6B6B6B" transform="translate(744.23046875,109.3515625)"/>
<path d="M0 0 C6.93 0 13.86 0 21 0 C21 0.66 21 1.32 21 2 C17.8765076 2.25427918 14.75153179 2.47412319 11.625 2.6875 C10.29082031 2.79674805 10.29082031 2.79674805 8.9296875 2.90820312 C7.65351563 2.99038086 7.65351563 2.99038086 6.3515625 3.07421875 C5.56604004 3.13182373 4.78051758 3.18942871 3.97119141 3.2487793 C2.99545166 3.12563354 2.99545166 3.12563354 2 3 C1.34 2.01 0.68 1.02 0 0 Z " fill="#646464" transform="translate(420,133)"/>
<path d="M0 0 C2.31 0.33 4.62 0.66 7 1 C6.67 1.99 6.34 2.98 6 4 C7.32 4.33 8.64 4.66 10 5 C8.68 5.99 7.36 6.98 6 8 C3.71019527 6.85509764 1.90767249 5.71690524 0 4 C0 2.68 0 1.36 0 0 Z " fill="#31C4C5" transform="translate(182,178)"/>
<path d="M0 0 C0.66 0 1.32 0 2 0 C2 0.99 2 1.98 2 3 C2.66 3 3.32 3 4 3 C4.28875 3.804375 4.5775 4.60875 4.875 5.4375 C5.73262568 8.1326468 5.73262568 8.1326468 8 9 C9.29128429 12.94981078 10.25697027 16.91333648 11 21 C8.0718145 17.39750049 5.97587472 13.4592011 3.8125 9.375 C3.44447266 8.694375 3.07644531 8.01375 2.69726562 7.3125 C0 2.24824617 0 2.24824617 0 0 Z " fill="#48BBB9" transform="translate(117,98)"/>
<path d="M0 0 C0.66 1.98 1.32 3.96 2 6 C0.9275 5.835 -0.145 5.67 -1.25 5.5 C-5.03028752 4.91189085 -5.03028752 4.91189085 -9 5 C-8.3125 3.0625 -8.3125 3.0625 -7 1 C-4.56968481 0.27090544 -2.52838375 0 0 0 Z " fill="#02CAC6" transform="translate(114,84)"/>
<path d="M0 0 C4.4339439 0.68802578 5.81975573 2.16220392 8.625 5.5625 C7.738125 5.19125 6.85125 4.82 5.9375 4.4375 C2.11115946 3.42676854 1.11286186 4.00214074 -2.375 5.5625 C-4.6875 5.1875 -4.6875 5.1875 -6.375 4.5625 C-4.60194042 1.22497609 -3.81251818 0.6354197 0 0 Z " fill="#08C8C7" transform="translate(113.375,50.4375)"/>
<path d="M0 0 C0.33 0 0.66 0 1 0 C1.125 6.75 1.125 6.75 0 9 C0 9.99 0 10.98 0 12 C-0.99 11.67 -1.98 11.34 -3 11 C-4.32 12.32 -5.64 13.64 -7 15 C-5.45454854 9.52067211 -2.84456788 4.88570819 0 0 Z " fill="#3FC2C0" transform="translate(36,161)"/>
<path d="M0 0 C1.32 0 2.64 0 4 0 C5.75 2.5 5.75 2.5 7 5 C6.34 5 5.68 5 5 5 C5.680625 6.0725 6.36125 7.145 7.0625 8.25 C8.54494286 10.58597057 9.09103886 11.46315231 8.62109375 14.234375 C8.41613281 14.81703125 8.21117187 15.3996875 8 16 C6.66141476 13.71125827 5.32898986 11.41930344 4 9.125 C3.6184375 8.47402344 3.236875 7.82304687 2.84375 7.15234375 C0 2.2265625 0 2.2265625 0 0 Z " fill="#3ABEBD" transform="translate(144,148)"/>
<path d="M0 0 C0.66 0 1.32 0 2 0 C1.855625 0.60328125 1.71125 1.2065625 1.5625 1.828125 C1.376875 2.62734375 1.19125 3.4265625 1 4.25 C0.814375 5.03890625 0.62875 5.8278125 0.4375 6.640625 C-0.12154828 9.25556002 -0.12154828 9.25556002 0 13 C0 13.99 0 14.98 0 16 C-0.66 16 -1.32 16 -2 16 C-3.06775224 14.03533587 -4.06553465 12.03144641 -5 10 C-4.67 9.34 -4.34 8.68 -4 8 C-3.67 8 -3.34 8 -3 8 C-2.67 6.35 -2.34 4.7 -2 3 C-1.34 3 -0.68 3 0 3 C0 2.01 0 1.02 0 0 Z " fill="#03CBC4" transform="translate(142,115)"/>
<path d="M0 0 C2.74792483 3.40219265 6 7.48464588 6 12 C4.35 12 2.7 12 1 12 C1.020625 11.13375 1.04125 10.2675 1.0625 9.375 C1.00261044 6.14096352 0.60419067 3.17200103 0 0 Z M-2 13 C-1.34 13 -0.68 13 0 13 C0.33 14.32 0.66 15.64 1 17 C0.01 17 -0.98 17 -2 17 C-2 15.68 -2 14.36 -2 13 Z " fill="#37C0BB" transform="translate(155,111)"/>
<path d="M0 0 C1.32 0 2.64 0 4 0 C4 0.66 4 1.32 4 2 C4.66 2.33 5.32 2.66 6 3 C4.02 3 2.04 3 0 3 C0 3.66 0 4.32 0 5 C-0.99 5 -1.98 5 -3 5 C-3 5.66 -3 6.32 -3 7 C-4.32 6.34 -5.64 5.68 -7 5 C-6.34 4.01 -5.68 3.02 -5 2 C-2.375 1.8125 -2.375 1.8125 0 2 C0 1.34 0 0.68 0 0 Z " fill="#2DC5C7" transform="translate(172,178)"/>
<path d="M0 0 C1.32 0.33 2.64 0.66 4 1 C3.67854004 1.54366211 3.35708008 2.08732422 3.02587891 2.64746094 C1.80794247 5.44042512 1.6830009 7.59930528 1.5859375 10.640625 C1.54726563 11.71054688 1.50859375 12.78046875 1.46875 13.8828125 C1.4378125 14.99398437 1.406875 16.10515625 1.375 17.25 C1.33632813 18.37664062 1.29765625 19.50328125 1.2578125 20.6640625 C1.16362664 23.44254548 1.07800414 26.22102334 1 29 C0.67 29 0.34 29 0 29 C0 19.43 0 9.86 0 0 Z " fill="#6B6B6B" transform="translate(736,137)"/>
<path d="M0 0 C2.07804617 1.71664683 2.95027053 2.85081159 3.8125 5.4375 C4.02316906 8.31664378 3.51754003 9.58978936 2 12 C1.01 12 0.02 12 -1 12 C-0.125 6.25 -0.125 6.25 1 4 C0.34 3.67 -0.32 3.34 -1 3 C-0.67 2.01 -0.34 1.02 0 0 Z " fill="#09C8C7" transform="translate(153,112)"/>
<path d="M0 0 C2 1 2 1 2.6875 2.625 C3.115033 5.87425079 2.55596842 8.78773804 2 12 C-0.25245881 9.31158141 -1.88213958 7.35358125 -3 4 C-5.01508358 3.26676204 -5.01508358 3.26676204 -7 3 C-4.39417629 2.06934867 -3.35801776 1.85082593 -0.75 2.9375 C-0.1725 3.288125 0.405 3.63875 1 4 C0.67 2.68 0.34 1.36 0 0 Z " fill="#35C5C2" transform="translate(115,86)"/>
<path d="M0 0 C0.99 0 1.98 0 3 0 C2.25 6.625 2.25 6.625 0 10 C-0.66 10 -1.32 10 -2 10 C-2.25 3.375 -2.25 3.375 0 0 Z " fill="#04CBC5" transform="translate(164,148)"/>
<path d="M0 0 C1.32 0 2.64 0 4 0 C4 0.66 4 1.32 4 2 C5.65 2 7.3 2 9 2 C5.28475712 4.47682859 2.30361706 4.43538538 -2 4 C-5 3 -5 3 -7 2 C-7 1.67 -7 1.34 -7 1 C-4.69 1.33 -2.38 1.66 0 2 C0 1.34 0 0.68 0 0 Z " fill="#38C1BD" transform="translate(176,184)"/>
<path d="M0 0 C2.4375 0.375 2.4375 0.375 5 1 C5.33 1.66 5.66 2.32 6 3 C7.32 2.67 8.64 2.34 10 2 C8.84414715 5.91211733 7.64465038 8.8745041 5 12 C5.103125 11.0925 5.20625 10.185 5.3125 9.25 C5.35082131 5.80603302 5.35082131 5.80603302 2.5 3.75 C1.675 3.1725 0.85 2.595 0 2 C0 1.34 0 0.68 0 0 Z " fill="#2BBDBB" transform="translate(79,121)"/>
<path d="M0 0 C1.11375 0.4640625 1.11375 0.4640625 2.25 0.9375 C4.50692176 1.8094925 6.6450153 2.47667007 9 3 C7.13559425 4.86440575 4.1175383 4.17374427 1.625 4.1875 C-0.11910156 4.20876953 -0.11910156 4.20876953 -1.8984375 4.23046875 C-5 4 -5 4 -8 2 C-7.05125 2.04125 -6.1025 2.0825 -5.125 2.125 C-1.89755144 2.34973818 -1.89755144 2.34973818 0 0 Z " fill="#676767" transform="translate(879,194)"/>
<path d="M0 0 C2.64 0 5.28 0 8 0 C8 0.66 8 1.32 8 2 C7.34 2 6.68 2 6 2 C5.67 3.65 5.34 5.3 5 7 C4.01 6.67 3.02 6.34 2 6 C0.8125 2.9375 0.8125 2.9375 0 0 Z " fill="#06CAC9" transform="translate(230,135)"/>
<path d="M0 0 C3.44004627 1.14668209 4.26635169 1.87943304 6 5 C5.6875 7.75 5.6875 7.75 5 10 C4.34 10 3.68 10 3 10 C0.4606772 6.58168085 -0.3636198 4.24223102 0 0 Z " fill="#1EC4C3" transform="translate(133,125)"/>
<path d="M0 0 C-0.66 1.32 -1.32 2.64 -2 4 C-2.99 4 -3.98 4 -5 4 C-5 4.66 -5 5.32 -5 6 C-5.66 6 -6.32 6 -7 6 C-7.33 7.65 -7.66 9.3 -8 11 C-8.66 11 -9.32 11 -10 11 C-10.33 12.65 -10.66 14.3 -11 16 C-12.13984859 12.58045423 -11.96061034 12.1951126 -10.4375 9.125 C-8.33822492 5.16051536 -4.94177659 0 0 0 Z " fill="#676767" transform="translate(306,114)"/>
<path d="M0 0 C0.66 0 1.32 0 2 0 C2 1.98 2 3.96 2 6 C0.25364835 6.53293835 -1.49727652 7.05090663 -3.25 7.5625 C-4.22453125 7.85253906 -5.1990625 8.14257812 -6.203125 8.44140625 C-8.96243932 8.99249836 -10.3912824 8.93789609 -13 8 C-10.03821227 6.32889958 -7.62928808 5.67317248 -4.25 5.375 C-3.45078125 5.30023438 -2.6515625 5.22546875 -1.828125 5.1484375 C-1.22484375 5.09945312 -0.6215625 5.05046875 0 5 C0 3.35 0 1.7 0 0 Z " fill="#6C6C6C" transform="translate(837,187)"/>
<path d="M0 0 C0.66 0.33 1.32 0.66 2 1 C-2.455 6.94 -2.455 6.94 -7 13 C-8 9 -8 9 -7.109375 7.1484375 C-6.43648437 6.27058594 -6.43648437 6.27058594 -5.75 5.375 C-5.31171875 4.78460938 -4.8734375 4.19421875 -4.421875 3.5859375 C-3 2 -3 2 0 0 Z " fill="#646464" transform="translate(862,138)"/>
<path d="M0 0 C0.99 0.33 1.98 0.66 3 1 C2.38125 1.556875 1.7625 2.11375 1.125 2.6875 C-1.14083443 4.86133434 -1.14083443 4.86133434 -2 7.6875 C-2.33 8.450625 -2.66 9.21375 -3 10 C-5.125 10.8125 -5.125 10.8125 -7 11 C-6.25 7.625 -6.25 7.625 -5 4 C-2.9375 2.6875 -2.9375 2.6875 -1 2 C-0.67 1.34 -0.34 0.68 0 0 Z " fill="#06C9C8" transform="translate(138,112)"/>
<path d="M0 0 C0.66 1.32 1.32 2.64 2 4 C0.02 4.99 0.02 4.99 -2 6 C-2 4.68 -2 3.36 -2 2 C-2.99 2.66 -3.98 3.32 -5 4 C-6.32 4 -7.64 4 -9 4 C-9 3.34 -9 2.68 -9 2 C-5.86501708 0.14223235 -3.62528568 -0.20140476 0 0 Z " fill="#09CAC6" transform="translate(226,124)"/>
<path d="M0 0 C0.86625 0.5259375 0.86625 0.5259375 1.75 1.0625 C3.92304158 2.23068092 3.92304158 2.23068092 6 1.5 C8.65172183 0.83706954 9.66915809 1.71803695 12 3 C10.56445975 3.50559908 9.1264798 4.0042749 7.6875 4.5 C6.48673828 4.91765625 6.48673828 4.91765625 5.26171875 5.34375 C3 6 3 6 0 6 C0 4.02 0 2.04 0 0 Z " fill="#686868" transform="translate(667,193)"/>
<path d="M0 0 C0.33 0 0.66 0 1 0 C1 2.64 1 5.28 1 8 C0.01 8.33 -0.98 8.66 -2 9 C-2.33 10.65 -2.66 12.3 -3 14 C-3.33 14 -3.66 14 -4 14 C-4.49940808 7.88225104 -3.24900602 4.97504047 0 0 Z " fill="#39C0C2" transform="translate(28,176)"/>
<path d="M0 0 C0.66 0.33 1.32 0.66 2 1 C1.62403791 3.78211944 1.32681541 5.5879284 -0.4375 7.8125 C-2 9 -2 9 -4 9 C-4.33 8.01 -4.66 7.02 -5 6 C-4.34 6 -3.68 6 -3 6 C-3 5.01 -3 4.02 -3 3 C-1.5 1.3125 -1.5 1.3125 0 0 Z " fill="#13C4BF" transform="translate(90,115)"/>
<path d="M0 0 C3.63 0 7.26 0 11 0 C11 1.65 11 3.3 11 5 C10.113125 4.690625 9.22625 4.38125 8.3125 4.0625 C5.53290845 3.1709329 2.86863625 2.50622993 0 2 C0 1.34 0 0.68 0 0 Z " fill="#13C9C7" transform="translate(213,115)"/>
<path d="M0 0 C0.33 0.66 0.66 1.32 1 2 C1.99 2.33 2.98 2.66 4 3 C4 4.98 4 6.96 4 9 C0.60085025 7.86695008 -0.05254451 6.87481525 -2 4 C-1.34 2.68 -0.68 1.36 0 0 Z " fill="#0CC8C5" transform="translate(45,148)"/>
<path d="M0 0 C0.33 1.32 0.66 2.64 1 4 C0.34 4 -0.32 4 -1 4 C-1.12375 4.78375 -1.2475 5.5675 -1.375 6.375 C-2 9 -2 9 -4 11 C-4.66 10.34 -5.32 9.68 -6 9 C-6 6 -6 6 -4.625 4.3125 C-3 3 -3 3 -1 3 C-0.67 2.01 -0.34 1.02 0 0 Z " fill="#03CBC6" transform="translate(155,147)"/>
<path d="M0 0 C1.32 0.66 2.64 1.32 4 2 C3.67 3.32 3.34 4.64 3 6 C2.01 6 1.02 6 0 6 C0 6.66 0 7.32 0 8 C-0.99 8 -1.98 8 -3 8 C-2.67 6.68 -2.34 5.36 -2 4 C-1.34 4 -0.68 4 0 4 C0 2.68 0 1.36 0 0 Z " fill="#04CAC5" transform="translate(211,148)"/>
<path d="M0 0 C2 0 2 0 4.125 1.75 C6 4 6 4 6 8 C3.64035727 7.59316505 2.14065912 7.10185661 0.1875 5.6875 C-1 4 -1 4 -0.6875 1.8125 C-0.460625 1.214375 -0.23375 0.61625 0 0 Z " fill="#06CAC5" transform="translate(54,133)"/>
<path d="M0 0 C0.99 0 1.98 0 3 0 C3.33 0.99 3.66 1.98 4 3 C4.66 2.67 5.32 2.34 6 2 C6.66 1.67 7.32 1.34 8 1 C8.99 1.33 9.98 1.66 11 2 C11 2.66 11 3.32 11 4 C8.03 4.66 5.06 5.32 2 6 C1.34 4.02 0.68 2.04 0 0 Z " fill="#686868" transform="translate(897,193)"/>
<path d="M0 0 C0 3.16928058 -0.43616043 4.07857728 -1.9375 6.75 C-3.94259386 10.57597414 -4.64278481 13.71341766 -5 18 C-5.33 18 -5.66 18 -6 18 C-6.3501774 11.34662948 -5.8813565 6.30822413 -1.3125 1.0625 C-0.6628125 0.5365625 -0.6628125 0.5365625 0 0 Z " fill="#6B6B6B" transform="translate(563,139)"/>
<path d="M0 0 C2.52394612 3.12488567 4.39701907 6.31314387 6 10 C5.67 10.66 5.34 11.32 5 12 C4.01 11.67 3.02 11.34 2 11 C2 9.35 2 7.7 2 6 C1.01 5.67 0.02 5.34 -1 5 C-0.67 3.35 -0.34 1.7 0 0 Z " fill="#35BEB8" transform="translate(133,69)"/>
<path d="M0 0 C0.99 0.33 1.98 0.66 3 1 C3.125 3.375 3.125 3.375 3 6 C1 8 1 8 -0.9453125 8.1953125 C-2.96354167 8.13020833 -4.98177083 8.06510417 -7 8 C-4.64046906 5.64046906 -3.22104383 5.50858587 0 5 C0 3.35 0 1.7 0 0 Z " fill="#0EC7C3" transform="translate(225,135)"/>
<path d="M0 0 C0.99 0.495 0.99 0.495 2 1 C2.26420117 2.94848361 2.52093364 4.89873946 2.71484375 6.85546875 C3.09527895 9.71654994 3.98946638 12.30524369 5 15 C1.95601671 12.15240273 0.11001599 10.30153445 -0.09765625 5.95703125 C-0.06510417 3.97135417 -0.03255208 1.98567708 0 0 Z " fill="#666666" transform="translate(557,177)"/>
<path d="M0 0 C2.3125 -0.3125 2.3125 -0.3125 5 0 C6.8125 2.5 6.8125 2.5 8 5 C4.61976483 5 2.16531063 4.12544378 -1 3 C-0.67 2.01 -0.34 1.02 0 0 Z " fill="#23C7C5" transform="translate(267,181)"/>
<path d="M0 0 C-1.3937282 4.43458973 -3.60582235 6.87378374 -7 10 C-7.3125 7.25 -7.3125 7.25 -7 4 C-3 0 -3 0 0 0 Z " fill="#2EBCB6" transform="translate(207,162)"/>
<path d="M0 0 C2.95183101 2.95183101 3.08663988 5.95511947 4 10 C2.68 10 1.36 10 0 10 C-0.95024979 6.30458414 -0.95024979 3.69541586 0 0 Z " fill="#05CAC6" transform="translate(170,142)"/>
<path d="M0 0 C3.53586014 3.17320782 5.58578031 5.16743695 6 10 C4.68 9.67 3.36 9.34 2 9 C1.855625 8.2575 1.71125 7.515 1.5625 6.75 C1.09812508 4.47972261 0.58136431 2.24240521 0 0 Z " fill="#6E6E6E" transform="translate(457,139)"/>
<path d="M0 0 C0 0.99 0 1.98 0 3 C-0.66 3.66 -1.32 4.32 -2 5 C-2.64767793 7.57061311 -2.64767793 7.57061311 -3 10 C-3.99 10 -4.98 10 -6 10 C-6 10.99 -6 11.98 -6 13 C-6.66 13 -7.32 13 -8 13 C-6.63589551 7.40717158 -3.84616474 4.08806189 0 0 Z " fill="#46BCB8" transform="translate(95,55)"/>
<path d="M0 0 C0.66 0 1.32 0 2 0 C1.67 1.98 1.34 3.96 1 6 C0.34 6 -0.32 6 -1 6 C-1 6.99 -1 7.98 -1 9 C-2.32 8.67 -3.64 8.34 -5 8 C-4.67 7.01 -4.34 6.02 -4 5 C-3.01 5 -2.02 5 -1 5 C-0.67 3.35 -0.34 1.7 0 0 Z " fill="#05C9C8" transform="translate(189,143)"/>
<path d="M0 0 C0.66 0 1.32 0 2 0 C2.66 1.32 3.32 2.64 4 4 C4 3.01 4 2.02 4 1 C4.99 1 5.98 1 7 1 C7 1.99 7 2.98 7 4 C5.02 4.33 3.04 4.66 1 5 C0.34 3.68 -0.32 2.36 -1 1 C-0.67 0.67 -0.34 0.34 0 0 Z " fill="#08C9C5" transform="translate(244,183)"/>
<path d="M0 0 C1.32 0 2.64 0 4 0 C2.5682479 5.01113235 0.01554307 6.94469549 -4 10 C-4 7 -4 7 -1.5 4.3125 C-0.675 3.549375 0.15 2.78625 1 2 C0.34 1.67 -0.32 1.34 -1 1 C-0.67 0.67 -0.34 0.34 0 0 Z " fill="#3DBCBA" transform="translate(196,172)"/>
<path d="M0 0 C4.95 0.99 4.95 0.99 10 2 C9.67 3.65 9.34 5.3 9 7 C8.62875 6.54625 8.2575 6.0925 7.875 5.625 C5.45735315 3.52970606 3.04569398 2.87986715 0 2 C0 1.34 0 0.68 0 0 Z " fill="#6B6B6B" transform="translate(442,133)"/>
<path d="M0 0 C2.64465038 3.1254959 3.84414715 6.08788267 5 10 C4.01 10.33 3.02 10.66 2 11 C0.80712589 7.12315913 0 4.08378077 0 0 Z " fill="#3CBFBC" transform="translate(145,92)"/>
<path d="M0 0 C0.66 0 1.32 0 2 0 C2.1875 2.875 2.1875 2.875 2 6 C1.01 6.66 0.02 7.32 -1 8 C-1.625 5.125 -1.625 5.125 -2 2 C-1.34 1.34 -0.68 0.68 0 0 Z " fill="#05C9C5" transform="translate(156,159)"/>
<path d="M0 0 C4.95 0 9.9 0 15 0 C15 1.65 15 3.3 15 5 C14.63261719 4.51917969 14.26523437 4.03835937 13.88671875 3.54296875 C11.25159557 1.38795083 9.17494364 1.49327654 5.8125 1.3125 C4.18248047 1.21388672 4.18248047 1.21388672 2.51953125 1.11328125 C1.68808594 1.07589844 0.85664062 1.03851563 0 1 C0 0.67 0 0.34 0 0 Z " fill="#6B6B6B" transform="translate(780,135)"/>
<path d="M0 0 C0.33 0.66 0.66 1.32 1 2 C1.66 2 2.32 2 3 2 C3 3.32 3 4.64 3 6 C3.66 6 4.32 6 5 6 C5.33 5.34 5.66 4.68 6 4 C5.67 6.31 5.34 8.62 5 11 C0 4.63636364 0 4.63636364 0 0 Z " fill="#33C2BF" transform="translate(128,117)"/>
<path d="M0 0 C3.39914975 1.13304992 4.05254451 2.12518475 6 5 C5.34 6.32 4.68 7.64 4 9 C1.49701566 6.06171403 0.53069061 3.82097239 0 0 Z " fill="#2EC7CA" transform="translate(133,79)"/>
<path d="M0 0 C2.0625 0.4375 2.0625 0.4375 4 1 C3.6875 2.9375 3.6875 2.9375 3 5 C2.01 5.33 1.02 5.66 0 6 C-0.38218767 4.34385343 -0.71395102 2.67542976 -1 1 C-0.67 0.67 -0.34 0.34 0 0 Z " fill="#07CAC8" transform="translate(57,159)"/>
<path d="M0 0 C1.485 0.99 1.485 0.99 3 2 C3.1875 5.625 3.1875 5.625 3 9 C1.68 8.34 0.36 7.68 -1 7 C-1 6.34 -1 5.68 -1 5 C-0.34 4.67 0.32 4.34 1 4 C0.67 2.68 0.34 1.36 0 0 Z " fill="#05C8C5" transform="translate(59,121)"/>
<path d="M0 0 C0.66 0 1.32 0 2 0 C2.33 1.65 2.66 3.3 3 5 C1.02 5 -0.96 5 -3 5 C-1.625 2.5 -1.625 2.5 0 0 Z " fill="#00CBC3" transform="translate(238,168)"/>
<path d="M0 0 C0.66 0 1.32 0 2 0 C2 0.66 2 1.32 2 2 C2.99 2.33 3.98 2.66 5 3 C5 4.65 5 6.3 5 8 C4.01 7.67 3.02 7.34 2 7 C0.8125 3.4375 0.8125 3.4375 0 0 Z " fill="#0AC9C8" transform="translate(204,128)"/>
<path d="M0 0 C0.66 0.33 1.32 0.66 2 1 C1.01 3.97 0.02 6.94 -1 10 C-1.66 9.67 -2.32 9.34 -3 9 C-2.5020163 5.26512223 -2.12508244 3.18762365 0 0 Z " fill="#6B6B6B" transform="translate(500,156)"/>
<path d="M0 0 C0.66 0 1.32 0 2 0 C2.33 1.98 2.66 3.96 3 6 C1.68 6 0.36 6 -1 6 C-1.042721 4.33388095 -1.04063832 2.66617115 -1 1 C-0.67 0.67 -0.34 0.34 0 0 Z " fill="#0CC9CA" transform="translate(160,140)"/>
<path d="M0 0 C1.32 0 2.64 0 4 0 C4 1.65 4 3.3 4 5 C2.35 5 0.7 5 -1 5 C-0.67 3.35 -0.34 1.7 0 0 Z " fill="#6F6F6F" transform="translate(755,137)"/>
<path d="M0 0 C0.66 0 1.32 0 2 0 C0.84414715 3.91211733 -0.35534962 6.8745041 -3 10 C-3 7.66666667 -3 5.33333333 -3 3 C-2.01 3 -1.02 3 0 3 C0 2.01 0 1.02 0 0 Z " fill="#38B8B8" transform="translate(81,134)"/>
<path d="M0 0 C0.80824219 0.11085938 1.61648437 0.22171875 2.44921875 0.3359375 C3.37154297 0.47902344 3.37154297 0.47902344 4.3125 0.625 C-0.06758443 3.20964442 -2.79875113 2.43979148 -7.6875 1.625 C-4.33422361 -0.61051759 -3.78006343 -0.54783528 0 0 Z " fill="#49B8B3" transform="translate(219.6875,113.375)"/>
<path d="M0 0 C0.66 0 1.32 0 2 0 C1.67 2.97 1.34 5.94 1 9 C0.34 9 -0.32 9 -1 9 C-1.125 2.25 -1.125 2.25 0 0 Z " fill="#06C7C2" transform="translate(59,169)"/>
<path d="M0 0 C1 3 1 3 -0.25 6.0625 C-2 9 -2 9 -5 11 C-3.77472971 6.94718288 -2.30119506 3.55639236 0 0 Z " fill="#43BCB7" transform="translate(42,150)"/>
<path d="M0 0 C0.66 0 1.32 0 2 0 C3.32 2.31 4.64 4.62 6 7 C4.68 7 3.36 7 2 7 C2 5.68 2 4.36 2 3 C1.34 3 0.68 3 0 3 C0 2.01 0 1.02 0 0 Z " fill="#03C9CA" transform="translate(248,150)"/>
<path d="M0 0 C0.99 0.33 1.98 0.66 3 1 C3 2.65 3 4.3 3 6 C1.68 6 0.36 6 -1 6 C-0.67 4.02 -0.34 2.04 0 0 Z " fill="#0AC9C6" transform="translate(158,122)"/>
<path d="M0 0 C1.8871875 0.0309375 1.8871875 0.0309375 3.8125 0.0625 C0.87529492 1.58549523 -2.1043649 2.86350302 -5.1875 4.0625 C-5.8475 3.0725 -6.5075 2.0825 -7.1875 1.0625 C-4.43671116 0.14557039 -2.82801087 -0.04636083 0 0 Z " fill="#696969" transform="translate(313.1875,111.9375)"/>
<path d="M0 0 C0.66 0 1.32 0 2 0 C0.84414715 3.91211733 -0.35534962 6.8745041 -3 10 C-3.3636198 5.75776898 -2.5393228 3.41831915 0 0 Z " fill="#38B4AF" transform="translate(63,167)"/>
<path d="M0 0 C0.99 0 1.98 0 3 0 C3.66 1.65 4.32 3.3 5 5 C3.68 5 2.36 5 1 5 C0.67 3.35 0.34 1.7 0 0 Z " fill="#06C9C6" transform="translate(195,167)"/>
<path d="M0 0 C0.33 0.99 0.66 1.98 1 3 C0.67 3.66 0.34 4.32 0 5 C-2.0625 5.625 -2.0625 5.625 -4 6 C-3.67 4.35 -3.34 2.7 -3 1 C-2.01 0.67 -1.02 0.34 0 0 Z " fill="#37C5C7" transform="translate(186,153)"/>
<path d="M0 0 C3.0916909 2.52956528 3.90931332 5.22454612 5 9 C4.01 8.67 3.02 8.34 2 8 C1.26953125 6.15234375 1.26953125 6.15234375 0.8125 3.9375 C0.65394531 3.20402344 0.49539062 2.47054687 0.33203125 1.71484375 C0.22246094 1.14894531 0.11289063 0.58304688 0 0 Z " fill="#3CBBB8" transform="translate(171,142)"/>
<path d="M0 0 C1 2 1 2 0.0625 5.125 C-0.288125 6.07375 -0.63875 7.0225 -1 8 C-1.99 8 -2.98 8 -4 8 C-2.87548273 5.0280615 -1.77706209 2.66559313 0 0 Z " fill="#37C0C1" transform="translate(189,140)"/>
<path d="M0 0 C2.375 -0.1875 2.375 -0.1875 5 0 C5.66 0.99 6.32 1.98 7 3 C4.69 3 2.38 3 0 3 C0 2.01 0 1.02 0 0 Z " fill="#06C9CA" transform="translate(209,123)"/>
<path d="M0 0 C0.99 0.33 1.98 0.66 3 1 C4.1875 3.5625 4.1875 3.5625 5 6 C3.68 5.67 2.36 5.34 1 5 C0.67 3.35 0.34 1.7 0 0 Z " fill="#03C9CA" transform="translate(121,101)"/>
<path d="M0 0 C0.33 0 0.66 0 1 0 C1.6875 2.8125 1.6875 2.8125 2 6 C0.5625 7.875 0.5625 7.875 -1 9 C-1.66 8.67 -2.32 8.34 -3 8 C-2.01 5.36 -1.02 2.72 0 0 Z " fill="#2EC5C1" transform="translate(84,72)"/>
<path d="M0 0 C1.5 1.25 1.5 1.25 3 3 C3 4.32 3 5.64 3 7 C2.01 7 1.02 7 0 7 C0 4.69 0 2.38 0 0 Z " fill="#08CAC5" transform="translate(25,184)"/>
<path d="M0 0 C1.65 0 3.3 0 5 0 C5 0.99 5 1.98 5 3 C3.35 3 1.7 3 0 3 C0 2.01 0 1.02 0 0 Z " fill="#0ACAC4" transform="translate(183,175)"/>
<path d="M0 0 C0.99 0.33 1.98 0.66 3 1 C3.625 3.875 3.625 3.875 4 7 C3.34 7.66 2.68 8.32 2 9 C1.34 6.03 0.68 3.06 0 0 Z " fill="#34C0C2" transform="translate(55,173)"/>
<path d="M0 0 C0.99 0.33 1.98 0.66 3 1 C3 2.32 3 3.64 3 5 C1.68 4.67 0.36 4.34 -1 4 C-0.67 2.68 -0.34 1.36 0 0 Z " fill="#05CAC8" transform="translate(43,172)"/>
<path d="M0 0 C0.66 0 1.32 0 2 0 C2 0.66 2 1.32 2 2 C2.66 2 3.32 2 4 2 C4 3.32 4 4.64 4 6 C3.01 6.33 2.02 6.66 1 7 C0.67 4.69 0.34 2.38 0 0 Z " fill="#0BC9C9" transform="translate(198,160)"/>
<path d="M0 0 C1.98 0 3.96 0 6 0 C5.67 1.32 5.34 2.64 5 4 C3.68 4 2.36 4 1 4 C0.67 2.68 0.34 1.36 0 0 Z " fill="#3FC5CC" transform="translate(228,164)"/>
<path d="M0 0 C5.53846154 0.61538462 5.53846154 0.61538462 7.875 2.5625 C8.431875 3.2740625 8.431875 3.2740625 9 4 C6.75 4.25 6.75 4.25 4 4 C1.6875 2 1.6875 2 0 0 Z " fill="#6C6C6C" transform="translate(609,135)"/>
<path d="M0 0 C3.82097239 0.53069061 6.06171403 1.49701566 9 4 C8.67 4.66 8.34 5.32 8 6 C7.34 5.34 6.68 4.68 6 4 C5.154375 3.67 4.30875 3.34 3.4375 3 C1 2 1 2 0 0 Z " fill="#6A6A6A" transform="translate(529,136)"/>
<path d="M0 0 C1.98 0 3.96 0 6 0 C6.33 0.66 6.66 1.32 7 2 C4.36 2.66 1.72 3.32 -1 4 C-0.67 2.68 -0.34 1.36 0 0 Z " fill="#626262" transform="translate(638,111)"/>
<path d="M0 0 C3 2 3 2 3.6875 5.125 C3.8421875 6.548125 3.8421875 6.548125 4 8 C3.34 8 2.68 8 2 8 C2 7.01 2 6.02 2 5 C1.34 5 0.68 5 0 5 C0 3.35 0 1.7 0 0 Z " fill="#0CC8C8" transform="translate(142,90)"/>
<path d="M0 0 C1.65 0.33 3.3 0.66 5 1 C5 1.66 5 2.32 5 3 C2.69 3 0.38 3 -2 3 C-1.34 2.01 -0.68 1.02 0 0 Z " fill="#06CBC3" transform="translate(101,51)"/>
</svg>
