<?xml version="1.0" encoding="UTF-8"?>
<svg version="1.1" xmlns="http://www.w3.org/2000/svg" width="945" height="264">
<path d="M0 0 C9.47552432 5.22976054 15.00076502 14.95097743 19.5 24.4375 C23.10253938 31.84210402 26.88904965 39.10717728 30.875 46.3125 C34.69945945 53.2412206 38.38004962 60.2118388 41.875 67.3125 C45.52205044 74.70547119 49.32192343 82.0022197 53.25 89.25 C54.00023437 90.64508789 54.00023437 90.64508789 54.765625 92.06835938 C57.1682673 96.46779224 59.54191914 100.52921627 62.875 104.3125 C63.19138428 103.79977539 63.50776855 103.28705078 63.83374023 102.75878906 C85.862106 67.1723606 85.862106 67.1723606 96.90625 63.66796875 C102.60897401 62.59368799 106.5603406 63.91503812 111.56640625 66.7109375 C114.94728977 69.05638969 117.79107374 71.73763462 119.875 75.3125 C119.875 76.3025 119.875 77.2925 119.875 78.3125 C118.781875 78.23 117.68875 78.1475 116.5625 78.0625 C115.345625 78.145 114.12875 78.2275 112.875 78.3125 C111.1273872 80.25305857 111.1273872 80.25305857 109.875 82.3125 C111.41220703 82.2815625 111.41220703 82.2815625 112.98046875 82.25 C123.66205628 82.31069834 123.66205628 82.31069834 126.984375 85.0546875 C128.99804714 88.28840805 129.875 90.47813457 129.875 94.3125 C116.015 93.8175 116.015 93.8175 101.875 93.3125 C101.215 94.9625 100.555 96.6125 99.875 98.3125 C100.90906982 98.30613525 101.94313965 98.29977051 103.00854492 98.29321289 C106.85760222 98.27874584 110.70517222 98.31016754 114.55395508 98.35522461 C116.21731498 98.36833723 117.88082076 98.36912323 119.54418945 98.35717773 C121.94106782 98.34213007 124.33392 98.37188985 126.73046875 98.41015625 C127.4702446 98.39590103 128.21002045 98.38164581 128.97221375 98.36695862 C131.99288728 98.45102971 134.24076878 98.71886245 136.49136353 100.82540894 C138.74405263 103.82752996 139.875 105.48681712 139.875 109.3125 C135.26698858 109.46123164 130.66038408 109.569888 126.05053711 109.64208984 C124.48388321 109.67219601 122.91739697 109.7130923 121.35131836 109.76513672 C119.09446857 109.83823887 116.83985204 109.87201301 114.58203125 109.8984375 C113.88600296 109.92940521 113.18997467 109.96037292 112.47285461 109.99227905 C109.68567095 109.99419197 107.5298063 109.91833065 105.42611694 107.97198486 C104.22005921 106.43611546 103.04632337 104.87502092 101.875 103.3125 C99.70968832 102.36813651 99.70968832 102.36813651 97.875 102.3125 C97.51784912 102.84093506 97.16069824 103.36937012 96.79272461 103.91381836 C95.13583288 106.36138405 93.47419289 108.80569162 91.8125 111.25 C91.25111328 112.08080078 90.68972656 112.91160156 90.11132812 113.76757812 C74.77340219 136.29241792 74.77340219 136.29241792 64.875 138.3125 C58.44850271 138.93441909 54.27495219 137.86203754 48.875 134.3125 C41.04161205 127.75431474 36.66682774 117.47856154 31.8125 108.6875 C31.14544002 107.48261343 30.47828361 106.27778025 29.81103516 105.07299805 C22.59378712 92.03072608 15.44386499 78.95172737 8.3828125 65.82421875 C7.79773926 64.73842529 7.21266602 63.65263184 6.60986328 62.53393555 C5.48316344 60.44178744 4.35899221 58.34827489 3.23779297 56.25317383 C0.07718011 50.37629809 0.07718011 50.37629809 -3.5 44.75 C-5.125 42.3125 -5.125 42.3125 -5.125 40.3125 C-8.40756228 41.24867571 -9.86322286 41.94714145 -11.87915039 44.76074219 C-12.40500732 45.78329102 -12.93086426 46.80583984 -13.47265625 47.859375 C-14.07158691 49.0030957 -14.67051758 50.14681641 -15.28759766 51.32519531 C-15.92100302 52.57091037 -16.55430123 53.81667992 -17.1875 55.0625 C-17.85295347 56.34300806 -18.52012763 57.62262328 -19.18896484 58.90136719 C-20.53910479 61.48470007 -21.88283706 64.07120448 -23.22216797 66.66015625 C-25.82180221 71.66934676 -28.53047801 76.61762311 -31.25 81.5625 C-34.28251552 87.09976159 -37.30656612 92.641133 -40.30078125 98.19921875 C-45.8689517 108.53342225 -51.49043913 118.83346152 -57.25 129.0625 C-57.79454834 130.0330835 -58.33909668 131.00366699 -58.90014648 132.00366211 C-59.41005127 132.90479736 -59.91995605 133.80593262 -60.4453125 134.734375 C-60.89148926 135.52424805 -61.33766602 136.31412109 -61.79736328 137.12792969 C-62.2354834 137.84883789 -62.67360352 138.56974609 -63.125 139.3125 C-63.76864502 140.4277002 -63.76864502 140.4277002 -64.42529297 141.56542969 C-66.125 143.3125 -66.125 143.3125 -68.8046875 143.83007812 C-69.85914062 143.83458984 -70.91359375 143.83910156 -72 143.84375 C-73.72476563 143.85148437 -73.72476563 143.85148437 -75.484375 143.859375 C-76.68578125 143.84390625 -77.8871875 143.8284375 -79.125 143.8125 C-80.32640625 143.82796875 -81.5278125 143.8434375 -82.765625 143.859375 C-84.49039063 143.85164063 -84.49039063 143.85164063 -86.25 143.84375 C-87.83167969 143.83698242 -87.83167969 143.83698242 -89.4453125 143.83007812 C-92.125 143.3125 -92.125 143.3125 -94.1171875 141.65429688 C-95.125 139.3125 -95.125 139.3125 -94.50341797 136.43359375 C-93.13510664 133.33538403 -91.68128673 130.3544156 -90.0703125 127.375 C-89.46171387 126.24416992 -88.85311523 125.11333984 -88.22607422 123.94824219 C-87.56751239 122.73625771 -86.90881781 121.52434535 -86.25 120.3125 C-85.56880196 119.0513072 -84.88797958 117.78991144 -84.20751953 116.52832031 C-82.18685809 112.7859829 -80.15714103 109.04861345 -78.125 105.3125 C-77.57392578 104.29865234 -77.02285156 103.28480469 -76.45507812 102.24023438 C-74.00431433 97.73519977 -71.54721237 93.2336744 -69.0859375 88.734375 C-65.36266167 81.92453583 -61.6715566 75.09732366 -57.97998047 68.27026367 C-55.36380518 63.43490656 -52.74046866 58.60387288 -50.09375 53.78515625 C-49.10402356 51.98184937 -48.11443922 50.17846449 -47.125 48.375 C-46.6407959 47.49312012 -46.1565918 46.61124023 -45.65771484 45.70263672 C-42.93730862 40.72106694 -40.28566529 35.7106897 -37.6953125 30.66015625 C-37.12039062 29.5405249 -36.54546875 28.42089355 -35.953125 27.26733398 C-34.84982135 25.11022984 -33.75303819 22.9497731 -32.6640625 20.78540039 C-24.67603953 5.15450022 -24.67603953 5.15450022 -17.9375 1.375 C-17.28394531 0.99472656 -16.63039063 0.61445312 -15.95703125 0.22265625 C-10.52212227 -2.4774158 -5.47230241 -2.56546502 0 0 Z " fill="#004B64" transform="translate(117.125,49.6875)"/>
<path d="M0 0 C0.96378571 -0.0033284 1.92757141 -0.0066568 2.92056274 -0.01008606 C4.94931566 -0.01512413 6.97807677 -0.01749536 9.00683594 -0.01733398 C12.08542727 -0.01951979 15.16365942 -0.03770719 18.2421875 -0.05664062 C20.22395712 -0.05957547 22.20572843 -0.06155966 24.1875 -0.0625 C25.09511078 -0.06968552 26.00272156 -0.07687103 26.93783569 -0.08427429 C35.38286128 -0.05455849 44.14272096 0.36791787 50.7265625 6.16796875 C54.55083049 11.66100822 55.26820326 15.50806434 54.9765625 22.10546875 C54.8940625 24.76609375 54.8115625 27.42671875 54.7265625 30.16796875 C46.4765625 30.16796875 38.2265625 30.16796875 29.7265625 30.16796875 C29.0665625 27.85796875 28.4065625 25.54796875 27.7265625 23.16796875 C23.18262673 20.89600086 16.90265426 21.93781397 11.9140625 21.91796875 C9.98723633 21.88703125 9.98723633 21.88703125 8.02148438 21.85546875 C6.16426758 21.84773438 6.16426758 21.84773438 4.26953125 21.83984375 C3.13539795 21.83049805 2.00126465 21.82115234 0.83276367 21.81152344 C-2.67984221 22.21460483 -4.49677909 23.00096994 -7.2734375 25.16796875 C-10.78787022 29.93883945 -9.68410138 36.75876942 -9.69897461 42.43969727 C-9.71088363 44.59571601 -9.76010044 46.74888067 -9.81054688 48.90429688 C-9.8200111 50.28253819 -9.82724614 51.66079699 -9.83203125 53.0390625 C-9.84548584 54.2861499 -9.85894043 55.5332373 -9.87280273 56.81811523 C-9.09204056 61.18179661 -7.86940563 62.61182027 -4.2734375 65.16796875 C-0.70453993 65.85352728 -0.70453993 65.85352728 3.21484375 65.65625 C3.91804245 65.64917526 4.62124115 65.64210052 5.3457489 65.6348114 C7.57796477 65.60696087 9.80761327 65.54425195 12.0390625 65.48046875 C13.55790631 65.45537326 15.0767897 65.43256227 16.59570312 65.41210938 C20.30681498 65.35716882 24.01643791 65.27096614 27.7265625 65.16796875 C29.24609959 60.25214798 29.24609959 60.25214798 29.7265625 55.16796875 C18.8365625 54.67296875 18.8365625 54.67296875 7.7265625 54.16796875 C7.7265625 48.88796875 7.7265625 43.60796875 7.7265625 38.16796875 C23.5665625 38.16796875 39.4065625 38.16796875 55.7265625 38.16796875 C55.7265625 76.51269809 55.7265625 76.51269809 50.7265625 82.16796875 C45.54473156 85.79631444 40.11536664 87.28507011 33.84130859 87.31323242 C32.87285004 87.31961227 31.90439148 87.32599213 30.90658569 87.33256531 C29.86491241 87.33367813 28.82323914 87.33479095 27.75 87.3359375 C26.66957428 87.3392659 25.58914856 87.3425943 24.47598267 87.34602356 C22.18793157 87.35108603 19.8998731 87.35343209 17.61181641 87.35327148 C14.13561571 87.35544743 10.65973787 87.37358145 7.18359375 87.39257812 C4.95573025 87.3955144 2.72786524 87.39749763 0.5 87.3984375 C-1.04429184 87.40921577 -1.04429184 87.40921577 -2.61978149 87.42021179 C-11.51803309 87.39248502 -20.18339543 87.07633714 -27.2734375 81.16796875 C-36.89356743 71.27297797 -35.5000254 56.42262643 -35.56860352 43.60131836 C-35.58011879 42.10935987 -35.60056388 40.61744243 -35.63012695 39.12573242 C-35.84256457 28.34600695 -35.71727658 16.6924711 -29.0234375 7.60546875 C-20.47793263 0.03104398 -10.92069556 0.01333043 0 0 Z " fill="#333333" transform="translate(327.2734375,110.83203125)"/>
<path d="M0 0 C3.774375 -0.020625 7.54875 -0.04125 11.4375 -0.0625 C12.62915771 -0.071604 13.82081543 -0.08070801 15.04858398 -0.09008789 C16.44572632 -0.09383423 16.44572632 -0.09383423 17.87109375 -0.09765625 C18.82943115 -0.10289307 19.78776855 -0.10812988 20.77514648 -0.11352539 C23 0 23 0 24 1 C24.09498646 3.43396019 24.12558417 5.83942952 24.11352539 8.27368164 C24.11367142 9.03460617 24.11381744 9.7955307 24.1139679 10.57951355 C24.11326862 13.10642298 24.10547555 15.63325962 24.09765625 18.16015625 C24.09579212 19.9075059 24.0943682 21.65485607 24.09336853 23.40220642 C24.08954293 28.01031934 24.07971229 32.61840095 24.06866455 37.22650146 C24.05845134 41.92508521 24.0538711 46.62367399 24.04882812 51.32226562 C24.03809005 60.54819087 24.02101313 69.77409284 24 79 C22.1061459 79.79718352 20.21144887 80.59236468 18.31640625 81.38671875 C17.26138916 81.82975342 16.20637207 82.27278809 15.11938477 82.72924805 C4.63573487 87 4.63573487 87 0 87 C0 85.68 0 84.36 0 83 C-0.680625 83.309375 -1.36125 83.61875 -2.0625 83.9375 C-12.07180861 87.55788822 -24.92703827 87.23577899 -35 84 C-39.33274445 81.67315576 -42.43539655 79.2132771 -45 75 C-46.91514001 68.26374741 -47.35617813 61.5304463 -47.3125 54.5625 C-47.30831055 53.64597656 -47.30412109 52.72945312 -47.29980469 51.78515625 C-47.16829498 43.90576594 -46.23776517 37.11748792 -42.4375 30.125 C-33.50307456 22.33601372 -23.39418201 21.40030621 -12 22 C-3.63568773 23.18215613 -3.63568773 23.18215613 0 25 C0 16.75 0 8.5 0 0 Z M-23 44 C-24.96385993 49.89157979 -25.00199199 57.26161468 -22.8125 63.125 C-21.24113865 66.0443283 -21.24113865 66.0443283 -18.875 67.4375 C-13.84091349 68.42242997 -9.11188039 68.359469 -4.0625 67.5 C-1.35780373 65.53294817 -0.88743132 63.4986739 -0.28125 60.28125 C0.57055793 53.37214124 0.40660824 48.18236309 -3 42 C-8.96339324 38.02440451 -18.25257129 38.27034466 -23 44 Z " fill="#333333" transform="translate(899,112)"/>
<path d="M0 0 C1.12083984 -0.020625 2.24167969 -0.04125 3.39648438 -0.0625 C13.13224053 -0.10770374 22.2970903 0.76659356 29.875 7.359375 C37.26259692 17.07567094 34.3125 25.37602746 34.3125 38.25 C19.4625 38.25 4.6125 38.25 -10.6875 38.25 C-10.15853163 44.26968036 -10.15853163 44.26968036 -7.6875 49.25 C-5.33436445 49.32271741 -2.97916332 49.33370868 -0.625 49.3125 C0.66535156 49.30347656 1.95570313 49.29445312 3.28515625 49.28515625 C4.78369141 49.26775391 4.78369141 49.26775391 6.3125 49.25 C7.3025 47.27 8.2925 45.29 9.3125 43.25 C17.5625 43.25 25.8125 43.25 34.3125 43.25 C31.85049392 55.5600304 31.85049392 55.5600304 25.3125 61.25 C17.76242077 65.93104912 9.78448269 65.46633049 1.18505859 65.49023438 C-0.91739976 65.49990752 -3.0188656 65.53095426 -5.12109375 65.5625 C-13.92442926 65.63237759 -21.89886328 65.36133255 -29.125 59.875 C-36.15245575 52.67614289 -34.90926805 41.29130355 -34.86157227 31.83886719 C-34.62150867 12.80900867 -34.62150867 12.80900867 -27.6171875 5.8046875 C-19.71637311 -0.56074596 -9.63122002 0.04355555 0 0 Z M-9.6875 18.25 C-9.6875 20.23 -9.6875 22.21 -9.6875 24.25 C-3.0875 24.25 3.5125 24.25 10.3125 24.25 C9.95186201 18.50186988 9.95186201 18.50186988 7.3125 16.25 C1.19030675 13.98252102 -4.18909408 15.03142092 -9.6875 18.25 Z " fill="#333333" transform="translate(590.6875,132.75)"/>
<path d="M0 0 C1.12083984 -0.020625 2.24167969 -0.04125 3.39648438 -0.0625 C13.13224053 -0.10770374 22.2970903 0.76659356 29.875 7.359375 C37.26259692 17.07567094 34.3125 25.37602746 34.3125 38.25 C19.7925 38.25 5.2725 38.25 -9.6875 38.25 C-9.32129316 46.27050148 -9.32129316 46.27050148 -7.6875 49.25 C-3.0675 49.25 1.5525 49.25 6.3125 49.25 C7.3025 47.27 8.2925 45.29 9.3125 43.25 C17.5625 43.25 25.8125 43.25 34.3125 43.25 C31.85049392 55.5600304 31.85049392 55.5600304 25.3125 61.25 C17.76242077 65.93104912 9.78448269 65.46633049 1.18505859 65.49023438 C-0.91739976 65.49990752 -3.0188656 65.53095426 -5.12109375 65.5625 C-13.81973066 65.6309612 -21.09667549 65.14421545 -28.5625 60.4375 C-33.28764913 55.5733759 -34.14746268 50.63993059 -34.12109375 44.0703125 C-34.1263356 43.29871796 -34.13157745 42.52712341 -34.13697815 41.73214722 C-34.14337423 40.10676267 -34.14209273 38.48133169 -34.13354492 36.85595703 C-34.12504752 34.38879594 -34.15380598 31.92396338 -34.18554688 29.45703125 C-34.18715966 27.86979235 -34.18657988 26.28254941 -34.18359375 24.6953125 C-34.19482773 23.96796906 -34.20606171 23.24062561 -34.21763611 22.49124146 C-34.13709211 16.4744365 -32.41343908 11.20964824 -28.27561951 6.71707153 C-20.10842414 -0.46752486 -10.28266202 0.04650158 0 0 Z M-9.6875 18.25 C-9.6875 20.23 -9.6875 22.21 -9.6875 24.25 C-3.0875 24.25 3.5125 24.25 10.3125 24.25 C10.79686516 19.56968101 10.79686516 19.56968101 9.0625 17.5 C3.20641099 13.31707928 -3.86015537 14.83887144 -9.6875 18.25 Z " fill="#333333" transform="translate(429.6875,132.75)"/>
<path d="M0 0 C0.78186676 0.00359528 1.56373352 0.00719055 2.36929321 0.01089478 C3.18873917 0.01074875 4.00818512 0.01060272 4.85246277 0.01045227 C7.57416385 0.01115164 10.29579737 0.01894515 13.01748657 0.02676392 C14.89935773 0.02862801 16.78122938 0.03005195 18.6631012 0.03105164 C23.62631561 0.0348775 28.58950096 0.04470836 33.55270386 0.05575562 C38.61322639 0.06596827 43.67375359 0.07054894 48.73428345 0.07559204 C58.67114521 0.08633057 68.60798535 0.10340781 78.54483032 0.12442017 C78.2414527 1.55208444 77.93422106 2.97893004 77.62539673 4.40542603 C77.45472687 5.20008774 77.28405701 5.99474945 77.10821533 6.81349182 C75.88836876 11.81713579 73.59960438 16.42006904 71.54483032 21.12442017 C63.95483032 21.45442017 56.36483032 21.78442017 48.54483032 22.12442017 C48.55006714 23.72881958 48.55530396 25.33321899 48.56069946 26.98623657 C48.57881749 32.94619182 48.59028725 38.90614464 48.59976196 44.86611938 C48.60478661 47.44424855 48.6116074 50.02237487 48.62026978 52.60049438 C48.63241709 56.30899762 48.63807738 60.01746314 48.64248657 63.72598267 C48.64764786 64.87619904 48.65280914 66.02641541 48.65812683 67.21148682 C48.65820236 68.29215424 48.65827789 69.37282166 48.65835571 70.48623657 C48.66057632 71.4322171 48.66279694 72.37819763 48.66508484 73.35284424 C48.53537943 76.34224044 48.09203966 79.18511169 47.54483032 82.12442017 C44.1091901 83.13088742 40.67103403 84.12847467 37.23233032 85.12442017 C36.25586548 85.41059204 35.27940063 85.69676392 34.27334595 85.99160767 C33.33555298 86.26231079 32.39776001 86.53301392 31.43154907 86.81192017 C30.56747437 87.06328735 29.70339966 87.31465454 28.81314087 87.57363892 C26.54483032 88.12442017 26.54483032 88.12442017 23.54483032 88.12442017 C23.54483032 66.01442017 23.54483032 43.90442017 23.54483032 21.12442017 C13.64483032 21.12442017 3.74483032 21.12442017 -6.45516968 21.12442017 C-6.47579468 17.84504517 -6.49641968 14.56567017 -6.51766968 11.18692017 C-6.52677368 10.15188354 -6.53587769 9.11684692 -6.54525757 8.05044556 C-6.54900391 6.83602783 -6.54900391 6.83602783 -6.55282593 5.59707642 C-6.55806274 4.76442261 -6.56329956 3.9317688 -6.56869507 3.07388306 C-6.32866763 -1.0478785 -3.45191234 0.00670074 0 0 Z " fill="#323232" transform="translate(643.4551696777344,110.87557983398438)"/>
<path d="M0 0 C3.31517324 3.18991481 5.84335258 6.30467445 6.12025452 11.06913757 C6.11803391 11.8618959 6.11581329 12.65465424 6.11352539 13.47143555 C6.11341209 14.82249641 6.11341209 14.82249641 6.11329651 16.20085144 C6.10813522 17.16968765 6.10297394 18.13852386 6.09765625 19.13671875 C6.0962413 20.13129593 6.09482635 21.12587311 6.09336853 22.15058899 C6.08776761 25.32958982 6.07521496 28.50852043 6.0625 31.6875 C6.05748512 33.84179586 6.05292219 35.99609282 6.04882812 38.15039062 C6.03779788 43.43361774 6.02105886 48.71680385 6 54 C3.1062867 54.84137043 0.21040603 55.6733036 -2.6875 56.5 C-3.50412109 56.73847656 -4.32074219 56.97695312 -5.16210938 57.22265625 C-9.19171125 58.36464868 -12.76504847 59.34500623 -17 59 C-17.01458252 57.91058105 -17.02916504 56.82116211 -17.04418945 55.69873047 C-17.10236072 51.63932215 -17.17959182 47.58045763 -17.26245117 43.52148438 C-17.2956122 41.76799373 -17.32367142 40.01439862 -17.34643555 38.26074219 C-17.3801447 35.73327302 -17.43246692 33.20675362 -17.48828125 30.6796875 C-17.49467117 29.90132538 -17.5010611 29.12296326 -17.50764465 28.3210144 C-17.6353382 23.54519125 -18.28694822 20.09752072 -21 16 C-25.16238168 14.63922137 -27.58321702 14.89067987 -31.8125 16 C-35.1718936 18.10785481 -35.70869843 18.90028804 -36.62670898 22.60595703 C-37.49400862 28.16824625 -37.48887325 33.81943579 -37.625 39.4375 C-37.66367187 40.74138672 -37.70234375 42.04527344 -37.7421875 43.38867188 C-37.83606701 46.59230999 -37.92175154 49.79594832 -38 53 C-46.74612119 56.31813525 -46.74612119 56.31813525 -51.1875 57.6875 C-51.98542969 57.93886719 -52.78335937 58.19023437 -53.60546875 58.44921875 C-56 59 -56 59 -61 59 C-61 38.21 -61 17.42 -61 -4 C-53.41 -4 -45.82 -4 -38 -4 C-37.67 -2.68 -37.34 -1.36 -37 0 C-36.42894531 -0.46921875 -35.85789062 -0.9384375 -35.26953125 -1.421875 C-26.21615521 -7.71716574 -8.56584164 -6.72577196 0 0 Z " fill="#333333" transform="translate(537,139)"/>
<path d="M0 0 C4.87881285 5.01433543 5.59165387 11.07637117 5.58988953 17.77490234 C5.57440567 18.67418457 5.55892181 19.5734668 5.54296875 20.5 C5.53872391 21.44311035 5.53447906 22.3862207 5.53010559 23.35791016 C5.5134357 26.34307518 5.47580575 29.32754218 5.4375 32.3125 C5.42243804 34.34764644 5.40875229 36.38280355 5.39648438 38.41796875 C5.36357055 43.3830777 5.31186999 48.34767087 5.25 53.3125 C2.16882573 54.15395956 -0.91525621 54.98423062 -4 55.8125 C-4.87269531 56.05097656 -5.74539063 56.28945312 -6.64453125 56.53515625 C-7.48886719 56.76074219 -8.33320312 56.98632812 -9.203125 57.21875 C-10.36569824 57.53295898 -10.36569824 57.53295898 -11.55175781 57.85351562 C-13.75 58.3125 -13.75 58.3125 -17.75 58.3125 C-17.779729 56.83040039 -17.779729 56.83040039 -17.81005859 55.31835938 C-17.88665605 51.62052747 -17.97528562 47.92306158 -18.06738281 44.22558594 C-18.10545052 42.6312589 -18.14034037 41.03685245 -18.171875 39.44238281 C-18.21801263 37.1383849 -18.27592065 34.83492334 -18.3359375 32.53125 C-18.34748871 31.82883179 -18.35903992 31.12641357 -18.37094116 30.40270996 C-18.51564624 25.44973296 -19.28441025 21.05772664 -20.75 16.3125 C-23.75091161 14.10594734 -26.29067914 14.2100917 -29.875 14.5 C-34.12840866 15.29583615 -34.12840866 15.29583615 -36.75 18.3125 C-37.91402727 21.80458181 -37.96118508 24.70397772 -38.06640625 28.38671875 C-38.08718735 29.0705513 -38.10796844 29.75438385 -38.12937927 30.4589386 C-38.19466154 32.6391921 -38.25366017 34.81956405 -38.3125 37 C-38.35570553 38.47982986 -38.39932047 39.95964783 -38.44335938 41.43945312 C-38.55032083 45.06367622 -38.65164823 48.68803189 -38.75 52.3125 C-47.49612119 55.63063525 -47.49612119 55.63063525 -51.9375 57 C-52.73542969 57.25136719 -53.53335938 57.50273437 -54.35546875 57.76171875 C-56.75 58.3125 -56.75 58.3125 -61.75 58.3125 C-61.75 37.5225 -61.75 16.7325 -61.75 -4.6875 C-54.16 -4.6875 -46.57 -4.6875 -38.75 -4.6875 C-38.42 -3.3675 -38.09 -2.0475 -37.75 -0.6875 C-36.925 -1.326875 -36.1 -1.96625 -35.25 -2.625 C-25.19097826 -9.19130586 -9.56821359 -5.87140379 0 0 Z " fill="#333333" transform="translate(833.75,139.6875)"/>
<path d="M0 0 C7.59 0 15.18 0 23 0 C23 17.82 23 35.64 23 54 C15.40056059 57.16643309 7.73706177 60.18652299 0 63 C0 42.21 0 21.42 0 0 Z " fill="#333333" transform="translate(736,137)"/>
<path d="M0 0 C2.77675703 3.95477517 3.31692494 7.15266959 3.0625 11.9375 C2.15295453 15.63631825 1.37348688 17.91522484 -1.67578125 20.29296875 C-5.20514438 22.30093651 -7.51629124 22.94463913 -11.625 22.875 C-16.66706762 21.44799973 -19.06474804 20.3920866 -21.8125 15.8125 C-23.40077704 11.44473815 -23.52268124 7.32661993 -21.9375 2.9375 C-15.77537397 -4.76917982 -8.07782928 -5.67166737 0 0 Z " fill="#323232" transform="translate(756.9375,112.0625)"/>
<path d="M0 0 C4.76874164 -0.14849962 9.53613415 -0.25728023 14.30664062 -0.32958984 C15.9286239 -0.35973462 17.55044452 -0.40065941 19.171875 -0.45263672 C21.50561611 -0.52556613 23.83720111 -0.55947489 26.171875 -0.5859375 C26.89493835 -0.61690521 27.61800171 -0.64787292 28.36297607 -0.67977905 C30.42480469 -0.68115234 30.42480469 -0.68115234 34 0 C36.61939137 3.01450944 38 4.71597687 38 8.75 C36.73587535 11.59428047 35.86288897 11.89405193 33 13 C30.49804688 13.25878906 30.49804688 13.25878906 27.71875 13.265625 C26.71199219 13.26820313 25.70523437 13.27078125 24.66796875 13.2734375 C23.62253906 13.26570312 22.57710938 13.25796875 21.5 13.25 C19.93185547 13.26160156 19.93185547 13.26160156 18.33203125 13.2734375 C16.82189453 13.26957031 16.82189453 13.26957031 15.28125 13.265625 C14.36408203 13.26336914 13.44691406 13.26111328 12.50195312 13.25878906 C8.7293276 12.86856823 6.68461484 11.84163659 4.296875 8.90625 C3.78640625 8.1121875 3.2759375 7.318125 2.75 6.5 C1.96882812 5.30890625 1.96882812 5.30890625 1.171875 4.09375 C0 2 0 2 0 0 Z " fill="#004A63" transform="translate(239,180)"/>
<path d="M0 0 C4.73201173 -0.19853527 9.46157717 -0.34326787 14.19677734 -0.43945312 C15.80527995 -0.47956057 17.41349308 -0.53406573 19.02099609 -0.60351562 C32.34933124 -1.16470868 32.34933124 -1.16470868 36.42480469 1.7109375 C38.89982475 4.88874104 40 6.94014994 40 11 C35.42879047 11.22372271 30.86080841 11.38632695 26.28540039 11.49438477 C24.73210116 11.53944773 23.1791796 11.60072454 21.62719727 11.67895508 C8.74228364 12.31182564 8.74228364 12.31182564 4.37939453 9.02685547 C0 3.51978616 0 3.51978616 0 0 Z " fill="#004960" transform="translate(228,164)"/>
<path d="M0 0 C0.66 0.33 1.32 0.66 2 1 C1.01 2.485 1.01 2.485 0 4 C1.65 4.33 3.3 4.66 5 5 C4.34 5.66 3.68 6.32 3 7 C3.495 7.45375 3.99 7.9075 4.5 8.375 C6 10 6 10 6 12 C9.68699487 12.1984578 13.37459622 12.38178602 17.0625 12.5625 C18.10083984 12.61857422 19.13917969 12.67464844 20.20898438 12.73242188 C25.64135615 12.99110625 30.65204485 13.02407652 36 12 C34.92128539 9.42807064 34.92128539 9.42807064 33 7 C30.21323597 6.21998144 30.21323597 6.21998144 27.01953125 6.29296875 C25.27446289 6.24946289 25.27446289 6.24946289 23.49414062 6.20507812 C22.27919922 6.19927734 21.06425781 6.19347656 19.8125 6.1875 C18.58595703 6.16236328 17.35941406 6.13722656 16.09570312 6.11132812 C13.0634802 6.05233546 10.03270491 6.01614319 7 6 C7 5.67 7 5.34 7 5 C11.56184239 4.79656588 16.12251983 4.67231052 20.6875 4.5625 C21.98107422 4.50384766 23.27464844 4.44519531 24.60742188 4.38476562 C33.93789445 4.21599739 33.93789445 4.21599739 37.01025391 6.48388672 C39.11408467 9.30457834 40 11.48004535 40 15 C35.39198858 15.14873164 30.78538408 15.257388 26.17553711 15.32958984 C24.60888321 15.35969601 23.04239697 15.4005923 21.47631836 15.45263672 C19.21946857 15.52573887 16.96485204 15.55951301 14.70703125 15.5859375 C14.01100296 15.61690521 13.31497467 15.64787292 12.59785461 15.67977905 C9.81199867 15.68169106 7.65169487 15.5745375 5.5093689 13.68585205 C4.2761928 12.17344522 3.13399776 10.58812682 2 9 C0.3497306 7.9731657 -1.31243867 6.96432076 -3 6 C-3 5.34 -3 4.68 -3 4 C-3.66 4 -4.32 4 -5 4 C-5 3.34 -5 2.68 -5 2 C-2.625 0.9375 -2.625 0.9375 0 0 Z " fill="#05526E" transform="translate(217,144)"/>
<path d="M0 0 C10.23 0 20.46 0 31 0 C30.67 0.66 30.34 1.32 30 2 C21.09 2 12.18 2 3 2 C3.66 2.66 4.32 3.32 5 4 C5.99 5.485 5.99 5.485 7 7 C10.06556598 7.73343428 10.06556598 7.73343428 13 8 C13 8.66 13 9.32 13 10 C20.26 10.33 27.52 10.66 35 11 C35.26352314 6.26352314 35.26352314 6.26352314 34 3 C33.01 3.33 32.02 3.66 31 4 C31.33 2.68 31.66 1.36 32 0 C35 1 35 1 36.75 3.25 C38 6 38 6 37.9375 8.6875 C37 11 37 11 35.27148438 12.12792969 C32.61418545 13.14812227 30.56245502 13.25863064 27.71875 13.265625 C26.71199219 13.26820313 25.70523437 13.27078125 24.66796875 13.2734375 C23.62253906 13.26570312 22.57710938 13.25796875 21.5 13.25 C19.93185547 13.26160156 19.93185547 13.26160156 18.33203125 13.2734375 C16.82189453 13.26957031 16.82189453 13.26957031 15.28125 13.265625 C14.36408203 13.26336914 13.44691406 13.26111328 12.50195312 13.25878906 C8.7293276 12.86856823 6.68461484 11.84163659 4.296875 8.90625 C3.78640625 8.1121875 3.2759375 7.318125 2.75 6.5 C1.96882812 5.30890625 1.96882812 5.30890625 1.171875 4.09375 C0 2 0 2 0 0 Z " fill="#06546E" transform="translate(239,180)"/>
<path d="M0 0 C2.46044923 0.38904539 3.72159721 0.71427082 5.484375 2.5234375 C6.11085938 3.43996094 6.11085938 3.43996094 6.75 4.375 C7.17796875 4.98085937 7.6059375 5.58671875 8.046875 6.2109375 C9 8 9 8 9 11 C-1.89 11 -12.78 11 -24 11 C-24.33 10.34 -24.66 9.68 -25 9 C-21.06731133 8.97526132 -17.13465287 8.95712165 -13.2019043 8.94506836 C-11.20685232 8.93757271 -9.21182214 8.92486655 -7.21679688 8.91210938 C-5.96318359 8.90888672 -4.70957031 8.90566406 -3.41796875 8.90234375 C-2.26063232 8.89710693 -1.1032959 8.89187012 0.08911133 8.88647461 C3 9 3 9 6 10 C5.67 9.34 5.34 8.68 5 8 C3.68 8 2.36 8 1 8 C1.33 5.69 1.66 3.38 2 1 C1.34 0.67 0.68 0.34 0 0 Z " fill="#08536D" transform="translate(259,164)"/>
<path d="M0 0 C9.9 0 19.8 0 30 0 C25.46620419 2.2668979 22.5630263 3.13682774 17.5625 2.9375 C13.90937226 2.90750716 11.22255006 3.10438232 8 5 C6.19651922 7.01317219 6.19651922 7.01317219 5 9 C4.16094435 7.87926138 3.32892169 6.75325453 2.5 5.625 C2.0359375 4.99851563 1.571875 4.37203125 1.09375 3.7265625 C0 2 0 2 0 0 Z " fill="#06536D" transform="translate(228,164)"/>
<path d="M0 0 C0.33 0 0.66 0 1 0 C1.61528766 5.07612318 -0.38341651 7.82982006 -3 12 C-3.66 12 -4.32 12 -5 12 C-5.12375 12.556875 -5.2475 13.11375 -5.375 13.6875 C-6.7558746 18.796736 -9.07252518 22.60878776 -12 27 C-12 27.66 -12 28.32 -12 29 C-11.34 29.66 -10.68 30.32 -10 31 C-10.66 31 -11.32 31 -12 31 C-12 31.66 -12 32.32 -12 33 C-13.485 33.495 -13.485 33.495 -15 34 C-15.33 34.825 -15.66 35.65 -16 36.5 C-16.33 37.325 -16.66 38.15 -17 39 C-18.485 39.495 -18.485 39.495 -20 40 C-18.28704136 33.8479717 -15.22441072 28.42397974 -12.25 22.8125 C-11.73695312 21.83474609 -11.22390625 20.85699219 -10.6953125 19.84960938 C-7.19544582 13.19722459 -3.61673876 6.58947824 0 0 Z " fill="#03556E" transform="translate(80,79)"/>
<path d="M0 0 C2 3 2 3 2 6 C10.58 5.67 19.16 5.34 28 5 C28.66 3.68 29.32 2.36 30 1 C30.66 1 31.32 1 32 1 C30.92598892 3.91517292 30.22189824 5.77810176 28 8 C23.70645058 8.48609303 19.38041918 8.37039913 15.0625 8.375 C13.25362305 8.41173828 13.25362305 8.41173828 11.40820312 8.44921875 C10.25384766 8.45308594 9.09949219 8.45695313 7.91015625 8.4609375 C6.84933838 8.46915527 5.78852051 8.47737305 4.69555664 8.48583984 C2 8 2 8 0.11108398 6.11181641 C-1 4 -1 4 -0.6875 1.75 C-0.460625 1.1725 -0.23375 0.595 0 0 Z " fill="#08566E" transform="translate(23,185)"/>
<path d="M0 0 C4.5648439 4.04592736 7.08412314 8.39660383 9.8125 13.8125 C10.21919922 14.60076172 10.62589844 15.38902344 11.04492188 16.20117188 C12.03843902 18.12976398 13.02041028 20.06429656 14 22 C13.34 22.33 12.68 22.66 12 23 C12 22.34 12 21.68 12 21 C11.34 20.67 10.68 20.34 10 20 C9.34 19.34 8.68 18.68 8 18 C8 18.66 8 19.32 8 20 C7.01 19.67 6.02 19.34 5 19 C5.20625 18.21625 5.4125 17.4325 5.625 16.625 C5.810625 15.325625 5.810625 15.325625 6 14 C5.34 13.34 4.68 12.68 4 12 C4 11.01 4 10.02 4 9 C2.88893396 5.58133526 1.72957339 3.35735884 -1 1 C-0.67 0.67 -0.34 0.34 0 0 Z " fill="#01546C" transform="translate(125,57)"/>
<path d="M0 0 C0.98255791 3.44986998 0.75214649 5.48998305 0 9 C-0.03772913 10.9996441 -0.04649906 13.00054061 0 15 C-0.99 15 -1.98 15 -3 15 C-6.8659328 16.3289144 -8.1337839 18.45418941 -10 22 C-10.33 21.34 -10.66 20.68 -11 20 C-10.10375977 17.93701172 -10.10375977 17.93701172 -8.69140625 15.4296875 C-8.19189453 14.53378906 -7.69238281 13.63789063 -7.17773438 12.71484375 C-6.64470703 11.77769531 -6.11167969 10.84054688 -5.5625 9.875 C-5.03333984 8.93011719 -4.50417969 7.98523438 -3.95898438 7.01171875 C-2.64641061 4.67037095 -1.32651055 2.3334713 0 0 Z " fill="#02536C" transform="translate(54,128)"/>
<path d="M0 0 C0 0.66 0 1.32 0 2 C1.98 2.66 3.96 3.32 6 4 C4.68 4.99 3.36 5.98 2 7 C1.443125 6.608125 0.88625 6.21625 0.3125 5.8125 C-2.0588382 4.69027362 -2.0588382 4.69027362 -4.5625 6.0625 C-7.1804282 8.14341729 -8.36586787 10.12081482 -10 13 C-10.66 13 -11.32 13 -12 13 C-10.24177682 7.87184906 -6.24541902 0 0 0 Z " fill="#02526C" transform="translate(101,51)"/>
<path d="M0 0 C2.98574762 1.53100222 3.73017273 2.2515091 5.6875 5.1875 C0.8125 3.3125 0.8125 3.3125 -0.3125 2.1875 C-1.65997084 1.95674918 -3.01627565 1.77596937 -4.375 1.625 C-5.674375 1.480625 -6.97375 1.33625 -8.3125 1.1875 C-8.3125 0.5275 -8.3125 -0.1325 -8.3125 -0.8125 C-8.9725 -0.8125 -9.6325 -0.8125 -10.3125 -0.8125 C-10.6425 0.5075 -10.9725 1.8275 -11.3125 3.1875 C-11.9725 2.5275 -12.6325 1.8675 -13.3125 1.1875 C-14.3025 0.8575 -15.2925 0.5275 -16.3125 0.1875 C-10.59516446 -2.58454147 -5.73129259 -2.70990465 0 0 Z " fill="#01546D" transform="translate(117.3125,49.8125)"/>
<path d="M0 0 C2.84354775 1.8956985 4.2933209 3.09864553 6 6 C5.6875 8.25 5.6875 8.25 5 10 C5.66 10 6.32 10 7 10 C7.33 10.99 7.66 11.98 8 13 C7.01 13.33 6.02 13.66 5 14 C3.96692229 12.23628182 2.94887951 10.46374967 1.9375 8.6875 C1.36902344 7.70136719 0.80054688 6.71523437 0.21484375 5.69921875 C-1 3 -1 3 0 0 Z " fill="#024962" transform="translate(133,125)"/>
<path d="M0 0 C0.64453125 1.81640625 0.64453125 1.81640625 1 4 C-0.20272366 5.52778411 -1.41659376 7.05105683 -2.73046875 8.484375 C-4.38891161 10.46430063 -5.09208612 12.60051332 -6 15 C-7.86342722 17.18750152 -9.5644384 18.37629227 -12 20 C-10.37885498 15.20178341 -7.70723241 11.3327141 -4.875 7.1875 C-4.40707031 6.49462891 -3.93914062 5.80175781 -3.45703125 5.08789062 C-2.30887563 3.38908895 -1.15500633 1.69415136 0 0 Z " fill="#04536D" transform="translate(197,128)"/>
<path d="M0 0 C1.65 0 3.3 0 5 0 C4.34 1.98 3.68 3.96 3 6 C3.66 6 4.32 6 5 6 C5 6.66 5 7.32 5 8 C2.13275314 7.42655063 1.1385485 7.1385485 -1 5 C-0.625 2.375 -0.625 2.375 0 0 Z " fill="#00445C" transform="translate(233,135)"/>
<path d="M0 0 C2.29158942 2.89818662 4.07862366 5.83140544 5.75 9.125 C6.19859375 9.99382812 6.6471875 10.86265625 7.109375 11.7578125 C7.40328125 12.49773437 7.6971875 13.23765625 8 14 C7.67 14.66 7.34 15.32 7 16 C6.01 16 5.02 16 4 16 C3.87882813 15.39671875 3.75765625 14.7934375 3.6328125 14.171875 C3.46523437 13.37265625 3.29765625 12.5734375 3.125 11.75 C2.96257812 10.96109375 2.80015625 10.1721875 2.6328125 9.359375 C2.08209363 6.98229161 2.08209363 6.98229161 0.9296875 4.890625 C0 3 0 3 0 0 Z " fill="#02546D" transform="translate(142,86)"/>
<path d="M0 0 C3.43927579 1.2419607 6.25207819 2.55740284 9 5 C9 5.66 9 6.32 9 7 C6.53199953 5.84826645 4.95216435 4.95216435 3 3 C1.35 3.66 -0.3 4.32 -2 5 C-2 4.01 -2 3.02 -2 2 C-1.34 2 -0.68 2 0 2 C0 1.34 0 0.68 0 0 Z " fill="#05526B" transform="translate(224,115)"/>
<path d="M0 0 C0.66 0 1.32 0 2 0 C2 0.66 2 1.32 2 2 C3.32 2.66 4.64 3.32 6 4 C6 5.32 6 6.64 6 8 C6.99 9.485 6.99 9.485 8 11 C7.67 11.99 7.34 12.98 7 14 C5.82807953 12.04480616 4.6626071 10.0857461 3.5 8.125 C2.8503125 7.03445312 2.200625 5.94390625 1.53125 4.8203125 C0 2 0 2 0 0 Z " fill="#04546E" transform="translate(121,106)"/>
<path d="M0 0 C1.32 0.66 2.64 1.32 4 2 C3.67 2.66 3.34 3.32 3 4 C3.99 4.33 4.98 4.66 6 5 C5.01 5.99 4.02 6.98 3 8 C0.78263366 6.89131683 -1.03617993 5.50559539 -3 4 C-1.68 3.67 -0.36 3.34 1 3 C0.67 2.01 0.34 1.02 0 0 Z " fill="#02516D" transform="translate(185,178)"/>
<path d="M0 0 C0.80824219 0.10183594 1.61648437 0.20367187 2.44921875 0.30859375 C3.06410156 0.39238281 3.67898437 0.47617188 4.3125 0.5625 C3.673125 0.68625 3.03375 0.81 2.375 0.9375 C1.694375 1.14375 1.01375 1.35 0.3125 1.5625 C-0.0175 2.2225 -0.3475 2.8825 -0.6875 3.5625 C-1.0175 3.2325 -1.3475 2.9025 -1.6875 2.5625 C-4.35808851 2.42134839 -7.01182238 2.52002893 -9.6875 2.5625 C-6.54519271 -0.57980729 -4.18151679 -0.54541523 0 0 Z M-11.6875 2.5625 C-9.6875 3.5625 -9.6875 3.5625 -9.6875 3.5625 Z " fill="#05556B" transform="translate(219.6875,113.4375)"/>
<path d="M0 0 C2 0 2 0 3.5 1.1875 C5.3194209 3.38596692 6.19852386 5.26162318 7 8 C6.67 9.32 6.34 10.64 6 12 C4.02 8.04 2.04 4.08 0 0 Z " fill="#02576D" transform="translate(142,145)"/>
<path d="M0 0 C2.0245738 1.93254772 3.42105792 3.63158688 5 6 C5 6.99 5 7.98 5 9 C2.03 8.505 2.03 8.505 -1 8 C-0.4740625 7.13375 -0.4740625 7.13375 0.0625 6.25 C1.14917407 3.64198224 0.93065133 2.60582371 0 0 Z " fill="#09536E" transform="translate(242,135)"/>
<path d="M0 0 C0.66 0 1.32 0 2 0 C2 2.64 2 5.28 2 8 C1.01 8.33 0.02 8.66 -1 9 C-1.125 2.25 -1.125 2.25 0 0 Z " fill="#024558" transform="translate(59,169)"/>
<path d="M0 0 C0.66 0.33 1.32 0.66 2 1 C1.67 1.99 1.34 2.98 1 4 C1.66 4.33 2.32 4.66 3 5 C2.01 5.33 1.02 5.66 0 6 C0 6.66 0 7.32 0 8 C-0.99 8 -1.98 8 -3 8 C-1.125 2.25 -1.125 2.25 0 0 Z " fill="#04516C" transform="translate(58,120)"/>
<path d="M0 0 C3.82669043 3.42388092 5.72278474 6.00724943 7 11 C3.17330957 7.57611908 1.27721526 4.99275057 0 0 Z " fill="#04536D" transform="translate(156,169)"/>
<path d="M0 0 C0.99 0.99 1.98 1.98 3 3 C2.34 4.65 1.68 6.3 1 8 C0.01 7.67 -0.98 7.34 -2 7 C-1.34 4.69 -0.68 2.38 0 0 Z " fill="#00435A" transform="translate(154,116)"/>
<path d="M0 0 C2 3 2 3 2 6 C0 7.6875 0 7.6875 -2 9 C-3 6 -3 6 -1.5625 2.8125 C-1.046875 1.884375 -0.53125 0.95625 0 0 Z " fill="#02546B" transform="translate(88,64)"/>
<path d="M0 0 C2.625 0.375 2.625 0.375 5 1 C5 1.66 5 2.32 5 3 C3.35 3.66 1.7 4.32 0 5 C-0.66 4.01 -1.32 3.02 -2 2 C-1.34 1.34 -0.68 0.68 0 0 Z " fill="#004359" transform="translate(110,51)"/>
<path d="M0 0 C-0.33 1.65 -0.66 3.3 -1 5 C-1.99 5.33 -2.98 5.66 -4 6 C-4 4.35 -4 2.7 -4 1 C-2 0 -2 0 0 0 Z " fill="#00445A" transform="translate(182,154)"/>
<path d="M0 0 C0.66 0 1.32 0 2 0 C2.66 1.98 3.32 3.96 4 6 C3.01 6 2.02 6 1 6 C0.34 4.35 -0.32 2.7 -1 1 C-0.67 0.67 -0.34 0.34 0 0 Z " fill="#00455A" transform="translate(240,135)"/>
<path d="M0 0 C0.99 0.33 1.98 0.66 3 1 C4.1875 3.5625 4.1875 3.5625 5 6 C3.35 5.67 1.7 5.34 0 5 C0 3.35 0 1.7 0 0 Z " fill="#00435B" transform="translate(121,101)"/>
<path d="M0 0 C2.64 0 5.28 0 8 0 C7.01 0.33 6.02 0.66 5 1 C3.79117904 3.00016466 3.79117904 3.00016466 3 5 C0 1.125 0 1.125 0 0 Z " fill="#00475E" transform="translate(231,165)"/>
</svg>
